<svg width="91" height="88" viewBox="0 0 91 88" fill="none" xmlns="http://www.w3.org/2000/svg">
<g clip-path="url(#clip0_862_2224)">
<path d="M0 31.3428H91V83.8826C91 86.1495 89.1248 87.9928 86.8186 87.9928H4.18139C1.8752 87.9928 0 86.1495 0 83.8826V31.3428Z" fill="#F1F1F1"/>
<path d="M90.9924 31.2679C90.6068 31.2828 90.2212 31.2977 89.8431 31.2977C60.3617 31.2977 30.8803 31.2977 1.39884 31.2977C0.982966 31.2977 0.574657 31.32 0.158787 31.3348C0.0982966 31.3348 0.0453677 31.3051 0 31.2605V10.1301C0.982966 7.72198 1.92813 7.10509 4.63506 7.10509C9.83722 7.10509 15.0394 7.10509 20.2415 7.09766C20.2415 10.0335 20.2415 12.9767 20.2415 15.9125C19.1603 17.347 19.3266 19.1754 20.6499 20.372C21.9428 21.5389 23.939 21.5389 25.2396 20.3645C26.5552 19.1754 26.714 17.3024 25.6252 15.9051C25.6252 12.9693 25.6252 10.0335 25.6252 7.09766C38.8725 7.09766 52.1199 7.09766 65.3673 7.09766C65.3673 10.0335 65.3673 12.9693 65.3673 15.9051C64.2709 17.3024 64.4297 19.1605 65.7529 20.3645C67.0459 21.5389 69.042 21.5463 70.3426 20.3794C71.6582 19.1977 71.8322 17.347 70.7509 15.92C70.7509 12.9767 70.7509 10.0409 70.7509 7.09766C76.1648 7.09766 81.5711 7.09766 86.985 7.11252C89.3365 7.11995 90.9698 8.6436 90.9773 10.8659C90.9924 17.6666 90.9773 24.4673 90.9849 31.2754L90.9924 31.2679Z" fill="#FE7058"/>
<path d="M20.2344 7.09797C20.2495 5.84932 20.3251 4.59324 20.2571 3.34459C20.1739 1.77635 20.7334 0.646622 22.2154 0H23.637C25.1265 0.616892 25.7012 1.72432 25.6104 3.28514C25.5348 4.54865 25.6104 5.81959 25.6256 7.09054C25.6256 10.0264 25.6256 12.9622 25.6256 15.898C25.618 16.0986 25.6029 16.2993 25.6029 16.5074C25.5878 18.098 24.5746 19.1534 23.0169 19.198C21.5576 19.2426 20.4158 18.1872 20.2949 16.6858C20.2722 16.4257 20.2646 16.1655 20.2495 15.9054C20.2495 12.9696 20.2495 10.0264 20.2495 7.09054L20.2344 7.09797Z" fill="#415A6B"/>
<path d="M68.7776 0C70.2898 0.646622 70.8267 1.80608 70.736 3.38176C70.6679 4.61554 70.7435 5.85676 70.7586 7.09054C70.7586 10.0338 70.7586 12.9696 70.7586 15.9128C70.7133 16.3142 70.7057 16.723 70.615 17.1169C70.1915 18.9453 68.2105 19.7703 66.615 18.7892C65.5111 18.1128 65.375 17.0351 65.375 15.898C65.375 12.9622 65.375 10.0264 65.375 7.09054C65.3826 5.81959 65.4582 4.54865 65.3901 3.28514C65.307 1.72432 65.8665 0.609459 67.3636 0H68.7851L68.7776 0Z" fill="#415A6B"/>
<path d="M76.7775 49.2621C74.5015 49.2621 72.218 49.2472 69.9421 49.2769C69.3221 49.2844 69.1255 49.0911 69.133 48.4817C69.1557 45.1668 69.1557 41.8445 69.133 38.5296C69.133 37.9128 69.3296 37.7344 69.9496 37.7344C74.5091 37.7567 79.0685 37.7567 83.628 37.7344C84.248 37.7344 84.4446 37.9202 84.437 38.5296C84.4144 41.8445 84.4144 45.1668 84.437 48.4817C84.437 49.0986 84.2405 49.2844 83.6204 49.2769C81.3445 49.2472 79.061 49.2621 76.785 49.2621H76.7775Z" fill="#CCD5DF"/>
<path d="M35.0996 54.5543C37.3453 54.5543 39.5986 54.5692 41.8443 54.5395C42.4416 54.532 42.6685 54.6807 42.6609 55.3124C42.6307 58.6273 42.6382 61.9422 42.6609 65.257C42.6609 65.8219 42.5021 66.0151 41.9124 66.0077C37.3529 65.9854 32.801 65.9854 28.2416 66.0077C27.6291 66.0077 27.5006 65.7773 27.5081 65.2347C27.5308 61.9496 27.5308 58.657 27.5081 55.3719C27.5081 54.7253 27.6896 54.5172 28.355 54.5246C30.6007 54.5618 32.8539 54.5395 35.0996 54.5395V54.5543Z" fill="#FED05D"/>
<path d="M14.2304 54.6802C16.4761 54.6802 18.7294 54.6951 20.9751 54.6654C21.5951 54.6579 21.8748 54.7768 21.8673 55.4755C21.837 58.7012 21.8446 61.9343 21.8673 65.1599C21.8673 65.7843 21.6707 66.0444 20.9977 66.0444C16.4685 66.0295 11.9393 66.0221 7.41768 66.0444C6.7296 66.0444 6.57082 65.7471 6.57838 65.1376C6.5935 61.912 6.60106 58.6789 6.57838 55.4532C6.57838 54.8289 6.79766 54.6579 7.40256 54.6654C9.6785 54.6951 11.962 54.6728 14.238 54.6728L14.2304 54.6802Z" fill="#CCD5DF"/>
<path d="M76.7848 54.6806C79.0305 54.6806 81.2838 54.6955 83.5295 54.6732C84.1495 54.6657 84.4293 54.7847 84.4217 55.4759C84.3915 58.7015 84.399 61.9347 84.4217 65.1603C84.4217 65.7847 84.2251 66.0448 83.5597 66.0448C79.0305 66.0299 74.5013 66.0225 69.9797 66.0448C69.2916 66.0448 69.1328 65.7475 69.1328 65.1455C69.1479 61.9198 69.1555 58.6867 69.1328 55.461C69.1328 54.8367 69.3521 54.6657 69.957 54.6732C72.2329 54.7029 74.5164 54.6806 76.7924 54.6806H76.7848Z" fill="#CCD5DF"/>
<path d="M14.2676 71.6264C16.5133 71.6264 18.7666 71.6487 21.0123 71.6115C21.6776 71.6041 21.8742 71.8122 21.8667 72.4588C21.8364 75.6622 21.8364 78.8582 21.8667 82.0615C21.8667 82.8122 21.5793 82.998 20.8686 82.998C16.4301 82.9757 11.9916 82.9757 7.55318 82.998C6.83485 82.998 6.55509 82.7899 6.56265 82.0541C6.59289 78.8507 6.59289 75.6548 6.56265 72.4514C6.56265 71.7899 6.7668 71.6041 7.42463 71.6115C9.70058 71.6487 11.9841 71.6264 14.26 71.6264H14.2676Z" fill="#CCD5DF"/>
<path d="M35.123 49.2618C32.8773 49.2618 30.624 49.2395 28.3783 49.2767C27.6978 49.2841 27.5239 49.0612 27.5315 48.422C27.5617 45.1963 27.5617 41.9706 27.5315 38.7449C27.5315 38.0983 27.713 37.8902 28.3859 37.8977C32.8773 37.9199 37.3763 37.9199 41.8677 37.8977C42.5028 37.8977 42.6692 38.1132 42.6616 38.7078C42.6389 41.9632 42.6389 45.2186 42.6616 48.474C42.6616 49.076 42.4877 49.2841 41.8601 49.2767C39.6144 49.247 37.3687 49.2618 35.1154 49.2618H35.123Z" fill="#CCD5DF"/>
<path d="M55.984 37.9051C58.1995 37.9051 60.4225 37.92 62.638 37.8977C63.2429 37.8903 63.4697 38.0612 63.4622 38.6855C63.4395 41.941 63.4395 45.1964 63.4622 48.4518C63.4622 49.0241 63.3336 49.2842 62.6833 49.2768C58.1617 49.2545 53.6325 49.2545 49.1108 49.2768C48.5437 49.2768 48.332 49.1207 48.332 48.5335C48.3547 45.2484 48.3547 41.9633 48.332 38.6781C48.332 38.0464 48.5589 37.8903 49.1562 37.8977C51.4322 37.9274 53.7081 37.9051 55.984 37.9051Z" fill="#CCD5DF"/>
<path d="M55.8939 54.6805C58.1396 54.6805 60.3928 54.6954 62.6385 54.6731C63.2359 54.6731 63.4703 54.8217 63.4703 55.4535C63.44 58.7386 63.4476 62.0238 63.4703 65.3089C63.4703 65.8886 63.2586 66.0521 62.6915 66.0521C58.1698 66.0373 53.6406 66.0298 49.119 66.0521C48.4611 66.0521 48.3326 65.7994 48.3402 65.2271C48.3628 61.9717 48.3628 58.7163 48.3402 55.4609C48.3402 54.8366 48.5519 54.6656 49.1568 54.6731C51.4025 54.7028 53.6482 54.6879 55.9014 54.6879L55.8939 54.6805Z" fill="#CCD5DF"/>
<path d="M35.1591 71.6265C37.3745 71.6265 39.5976 71.6488 41.813 71.6116C42.4784 71.6042 42.675 71.8048 42.6674 72.4515C42.6372 75.6771 42.6372 78.9028 42.6674 82.1285C42.6674 82.7603 42.5162 82.9907 41.8281 82.9907C37.3367 82.9609 32.8378 82.9684 28.3464 82.9907C27.7264 82.9907 27.5298 82.8048 27.5373 82.1954C27.56 78.94 27.5676 75.6846 27.5373 72.4292C27.5373 71.7454 27.7944 71.6042 28.422 71.6116C30.6677 71.6413 32.9134 71.6265 35.1667 71.6265H35.1591Z" fill="#CCD5DF"/>
<path d="M55.9011 82.983C53.6554 82.983 51.4021 82.9681 49.1564 82.9904C48.559 82.9904 48.3246 82.8417 48.3322 82.21C48.3625 78.9248 48.3549 75.6397 48.3322 72.3546C48.3322 71.7748 48.5364 71.6113 49.111 71.6113C53.6327 71.6262 58.1619 71.6336 62.6835 71.6113C63.3414 71.6113 63.4699 71.864 63.4623 72.4363C63.4396 75.6917 63.4396 78.9471 63.4623 82.2025C63.4623 82.8269 63.2431 82.9978 62.6381 82.9904C60.3924 82.9607 58.1467 82.983 55.8935 82.983H55.9011Z" fill="#CCD5DF"/>
</g>
<defs>
<clipPath id="clip0_862_2224">
<rect width="91" height="88" fill="white"/>
</clipPath>
</defs>
</svg>
