<svg width="70" height="94" viewBox="0 0 70 94" fill="none" xmlns="http://www.w3.org/2000/svg">
<path d="M58.4818 63.873H54.9375V90.4553H58.4818V63.873Z" fill="#CAE5EC"/>
<path d="M69.1142 47.0379C61.0296 47.0379 52.945 47.0311 44.8604 47.0243C44.3796 47.0243 43.8988 46.9906 43.418 46.9771C43.6721 45.1123 44.5994 43.4028 45.2657 41.6326C45.8427 40.0989 46.1449 38.5448 46.1105 36.93C46.0693 34.9841 46.5295 34.6328 48.9199 34.6328C54.0852 34.6328 59.2506 34.6328 64.4159 34.6328C65.6592 34.6328 66.5246 35.1936 66.4216 36.1733C66.0919 39.4029 67.5481 42.3083 68.6196 45.2879C68.8257 45.8555 68.9493 46.4433 69.1142 47.0243V47.0379Z" fill="#F1F3F7"/>
<path d="M33.6709 34.6328H0V84.2531H33.6709V34.6328Z" fill="#FE7A53"/>
<path d="M70.0009 53.513C69.6164 53.7226 69.7562 54.1277 69.7073 54.435C68.9453 59.1358 66.4496 62.5025 62.0734 64.4513C61.9476 64.5072 61.8428 64.591 61.7239 64.6608C60.4796 65.0171 59.2632 65.492 57.9629 65.6457C57.872 65.2126 57.4736 65.3244 57.2079 65.2475C50.6507 63.4035 46.8268 58.1859 46.9666 51.3128C46.9946 49.9019 47.2602 48.5119 47.2322 47.108C47.2952 47.087 47.3651 47.059 47.428 47.0381C47.8404 47.0521 48.2529 47.087 48.6583 47.087C55.5581 47.094 62.4649 47.101 69.3647 47.101C69.7282 48.1766 69.5744 49.3501 69.9939 50.4188V53.52L70.0009 53.513Z" fill="#FF3E40"/>
<path d="M5.78066 94.0001C4.95128 93.3976 3.9094 93.2127 3.08001 92.5897C1.16077 91.1656 0.0709128 89.3101 0.00922283 86.9069C-0.0181949 85.7361 0.0229323 84.5585 0.0366412 83.3809C11.2162 83.3809 22.389 83.3672 33.5685 83.3672C33.6508 84.7981 33.7742 86.2428 33.5137 87.6532C32.9174 90.8849 31.005 92.9594 27.7903 93.7947C27.6669 93.8289 27.5572 93.9316 27.4407 94.0001H5.78751H5.78066Z" fill="#FF3E40"/>
<path d="M57.9165 87.8315C57.9165 89.8115 58.6376 90.6735 60.5969 91.0035C62.291 91.2864 63.9509 91.6096 65.1211 93.0508C65.3592 93.3404 65.6109 93.5963 65.5633 94.0004H47.8477C48.1606 92.741 49.1267 92.1012 50.222 91.6635C51.018 91.347 51.882 91.1786 52.7324 91.017C54.787 90.6331 55.4945 89.8384 55.4945 87.7979L57.9165 87.8248V87.8315Z" fill="#CAE5EC"/>
<path d="M52.2793 64.7598C54.0081 65.5572 55.7759 65.8371 57.5958 65.5148L52.2793 64.7598Z" fill="#CAE5EC"/>
<path d="M33.6084 49.6967C30.7028 49.6967 27.7971 49.6967 24.8915 49.6967C23.4387 49.6967 22.8837 49.2184 22.8699 47.7074C22.8288 43.4375 19.423 39.14 14.8247 38.1696C8.63657 36.8596 3.0652 41.3442 2.48271 47.0627C2.44159 47.4648 2.3525 47.8668 2.30453 48.2757C2.15377 49.5026 1.82484 49.7036 0.0636538 49.6828C0.0636538 44.0267 -0.114523 38.3568 0.125327 32.7076C0.303501 28.4516 2.29083 24.8404 5.49111 22.0678C9.60282 18.5188 11.7478 14.1035 11.7683 8.62757C11.7683 7.66641 12.2412 7.18354 13.1869 7.17892C15.9486 7.17892 18.7034 7.17197 21.4651 7.16504C21.5748 7.1789 21.6844 7.18583 21.7941 7.19969C21.9859 9.00881 21.8009 10.8387 22.2395 12.634C23.0687 16.0512 24.6585 19.0317 27.3243 21.3122C31.7512 25.1037 33.814 29.8795 33.6632 35.7366C33.5467 40.3877 33.6152 45.0387 33.6015 49.6897L33.6084 49.6967Z" fill="#FF3E40"/>
<path d="M16.069 8.92976C14.3497 8.87957 12.6238 8.82939 10.9046 8.92976C8.92746 8.7577 8.86133 8.67885 8.86133 6.47084C8.86133 4.89369 8.86133 3.32368 8.86133 1.74653C8.86133 0.54933 9.27792 0.104875 10.3624 0.104875C14.6407 0.0977065 18.9256 0.0833407 23.2039 0.0761719C24.447 0.0761719 24.8107 0.477652 24.8107 1.84691C24.8107 3.58177 24.8107 5.31665 24.8107 7.05151C24.8107 8.54981 24.5131 8.87955 23.1377 8.90823C23.0385 8.90823 22.9394 8.92976 22.8468 8.93693C20.5853 8.93693 18.3238 8.93692 16.0623 8.92976H16.069Z" fill="#CAE5EC"/>
<path d="M69.1135 47.0379C62.4247 47.0379 55.7292 47.0311 49.0404 47.0243C48.6405 47.0243 48.2475 46.9906 47.8477 46.9771C48.0577 45.1123 48.8235 43.4028 49.3725 41.6326C49.8468 40.0989 50.1044 38.5448 50.0772 36.93C50.0434 34.9841 50.4229 34.6328 52.4017 34.6328C56.6779 34.6328 60.9474 34.6328 65.2236 34.6328C66.2536 34.6328 66.972 35.1936 66.8839 36.1733C66.606 39.4029 67.8191 42.3083 68.7001 45.2879C68.8695 45.8555 68.9712 46.4433 69.1067 47.0243L69.1135 47.0379Z" fill="#C5D2FF"/>
<path d="M57.5952 65.5354C55.7731 65.8062 54.0031 65.5701 52.2721 64.9172C51.8882 64.7713 51.4847 64.681 51.0878 64.563V64.5768C51.0162 64.5143 50.9446 64.4587 50.873 64.3962C47.5152 62.6597 45.1139 60.0203 44.0532 56.1306C43.2919 53.3314 43.2528 50.4975 43.7344 47.6358C43.819 47.1218 44.0402 47.0315 44.4372 47.0384C45.4914 47.0593 46.5521 47.0801 47.6063 47.094C47.6323 48.4971 47.3915 49.8724 47.359 51.2755C47.2223 58.1102 50.7884 63.2988 56.8924 65.1325C57.1397 65.2089 57.5106 65.0978 57.5952 65.5284V65.5354Z" fill="#FEB4A0"/>
<path d="M43.418 36.4886C43.418 35.4637 44.2488 34.6328 45.2737 34.6328H68.1445C69.1694 34.6328 70.0002 35.4637 70.0002 36.4886V54.1265C70.0002 61.467 64.0496 67.4176 56.7091 67.4176C49.3686 67.4176 43.418 61.467 43.418 54.1265V36.4886Z" fill="#CAE5EC"/>
<path d="M46.9629 46.3189C46.9629 45.7372 47.4345 45.2656 48.0162 45.2656H65.4033C65.985 45.2656 66.4566 45.7372 66.4566 46.3189V54.1264C66.4566 59.5094 62.0928 63.8732 56.7097 63.8732C51.3267 63.8732 46.9629 59.5094 46.9629 54.1264V46.3189Z" fill="#FE7A53"/>
</svg>
