<svg width="94" height="101" viewBox="0 0 94 101" fill="none" xmlns="http://www.w3.org/2000/svg">
<path d="M93.9923 3.91714C93.7302 3.99379 93.6917 4.24675 93.5992 4.43839C87.8031 16.1514 82.007 27.8645 76.2108 39.5852C76.1415 39.7308 76.1106 39.8918 76.0567 40.0451C74.5229 43.096 72.9736 46.1469 71.4552 49.2055C70.8309 50.455 70.1218 51.6662 69.6748 53C67.4473 53 65.2275 53 63 52.9923C63.1619 52.6397 63.3237 52.2794 63.4933 51.9268C66.2218 46.3923 68.9426 40.8577 71.6711 35.3308C71.8252 35.0395 71.9871 34.7559 72.1335 34.4646C77.2668 24.093 82.4 13.7291 87.5256 3.35754C88.1576 2.07738 88.7203 0.751229 90.0537 0H91.8264C92.8053 0.467602 93.5144 1.20351 94 2.16171V3.93246L93.9923 3.91714Z" fill="#995B4E"/>
<path d="M64.0074 28.0773C66.9391 21.92 69.8708 15.7626 72.8098 9.60521C73.8241 7.48171 74.8457 5.37342 75.8451 3.24231C76.43 1.99409 76.9852 0.730666 78.229 0H79.9317C80.3167 0.372944 80.8645 0.479494 81.2273 0.898104C82.1305 1.91799 82.2489 3.11292 81.5456 4.59709C77.3406 13.3955 73.1356 22.194 68.9305 31C67.3463 29.9192 65.8138 28.7547 64 28.0773H64.0074Z" fill="#995B4E"/>
<path d="M63.1751 53.0232C65.3811 53.0232 67.5795 53.0232 69.7856 53.031C74.5564 53.0232 79.3349 53.0155 84.1058 53.0077C84.5943 53.0232 85.0829 53 85.5638 53.0619C86.9072 53.2477 87.9912 54.4628 87.9988 55.8638C88.0599 65.6237 85.7622 74.6561 79.8158 82.5121C75.9991 87.5585 71.1519 91.3123 65.404 93.8432C64.7246 94.1451 64.4727 94.4857 64.5262 95.2209C64.5949 96.2039 64.5643 97.2024 64.5338 98.1931C64.488 99.7101 63.2819 100.995 61.7934 100.995C55.8699 101.01 49.9464 100.987 44.0153 100.972C44.0153 84.9966 44.0153 69.0215 44.0153 53.0542L44 53C50.3891 53 56.7706 53 63.1598 53L63.1751 53.0232Z" fill="#FF3E40"/>
<path d="M43.9924 53.0619C43.9924 69.0359 43.9924 85.0098 43.9924 100.976C38.0993 100.984 32.2138 101.015 26.3207 100.992C24.7711 100.992 23.5497 99.7223 23.4657 98.1667C23.397 96.851 23.9466 95.2567 23.2673 94.3048C22.6031 93.3683 21.023 93.1206 19.8856 92.486C9.58791 86.7357 3.45053 77.8742 1.00016 66.3116C0.328409 63.1462 0.0230653 59.9344 0.000164611 56.6916C-0.0151025 54.1686 1.0307 53.0774 3.51924 53.0309C3.64901 53.0309 3.77878 53.0077 3.90855 53C4.29786 53.0077 4.68717 53.0309 5.07648 53.0309C13.7558 53.0309 22.4428 53.0309 31.1222 53.0309C35.4122 53.0309 39.7023 53.0464 44 53.0542L43.9924 53.0619Z" fill="#FE7A53"/>
<path d="M44 52.9849C39.6127 52.9774 35.2254 52.9623 30.8303 52.9623C21.9543 52.9623 13.0705 52.9623 4.19441 52.9623C3.79627 52.9623 3.39813 52.9397 3 52.9321C3.2342 47.1185 5.96649 42.6547 11.314 40.0985C13.4452 39.0806 14.6396 37.9496 15.6778 35.876C17.9417 31.3292 21.9309 28.7353 27.2003 28.0114C28.9568 27.7702 30.6352 27.9436 32.3136 28.2904C33.0084 28.4337 33.4455 28.2829 33.9139 27.8531C36.7321 25.2517 40.1436 24.0754 44 24C44 27.5364 43.9844 31.0728 44 34.6092C44 35.1747 43.9532 35.5291 43.2428 35.7026C42.6026 35.8609 41.9391 36.1474 41.5487 36.8034C40.3934 38.7488 41.0491 40.5434 43.313 41.2974C43.8907 41.486 44 41.7272 43.9922 42.24C43.9688 45.8065 43.9766 49.3807 43.9766 52.9472L43.9922 53L44 52.9849ZM32.0247 41.3653C30.4244 41.3578 29.0192 42.6773 28.9958 44.2155C28.9724 45.7613 30.3307 47.1336 31.9155 47.1638C33.5626 47.194 34.9912 45.8518 34.9912 44.2683C34.9912 42.7226 33.6173 41.3804 32.0169 41.3729L32.0247 41.3653Z" fill="white"/>
<path d="M43.9053 53.1106C43.9053 49.4664 43.9054 45.8145 43.9208 42.1703C43.9208 41.6464 43.8129 41.4075 43.2505 41.2072C41.0162 40.4368 40.369 38.6031 41.5093 36.6154C41.8945 35.9451 42.5417 35.6523 43.1811 35.4905C43.8822 35.3133 43.9285 34.9512 43.9285 34.3734C43.9131 30.76 43.9285 27.1466 43.9285 23.5332C47.6728 23.5717 50.978 24.7505 53.7439 27.3238C54.2987 27.84 54.838 28.1173 55.6546 27.8785C58.0815 27.162 60.5007 27.4393 62.8968 28.0942C63.1434 28.1636 63.4053 28.2098 63.6596 28.2637C65.5395 28.9494 67.142 30.1282 68.7907 31.2223C68.9911 32.0081 69.7538 32.3317 70.1852 32.9249C70.7708 33.7339 71.3486 34.5506 71.9265 35.3595C69.1991 40.9222 66.4717 46.4848 63.752 52.0397C63.5825 52.3941 63.4207 52.7562 63.2589 53.1106C56.8103 53.1106 50.3694 53.1106 43.9208 53.1106H43.9053Z" fill="#DDDDDD"/>
<path d="M84.3696 53.1029C79.5543 53.1106 74.7313 53.1183 69.916 53.126C70.3629 51.7854 71.0794 50.5681 71.6957 49.3123C73.2135 46.2382 74.7621 43.1718 76.2953 40.1055C78.9071 41.1379 80.6945 43.1333 82.1353 45.4061C83.5991 47.7252 84.3773 50.3216 84.3696 53.1029Z" fill="#DDDDDD"/>
<path d="M32.103 41.2909C33.6747 41.2986 35.0384 42.6777 35.0384 44.2494C35.0384 45.8674 33.6285 47.2388 32.0029 47.208C30.4388 47.1771 29.0983 45.7826 29.1214 44.1955C29.1445 42.6238 30.5313 41.2755 32.1107 41.2832L32.103 41.2909Z" fill="#DDDDDD"/>
</svg>
