<svg width="514" height="447" viewBox="0 0 514 447" fill="none" xmlns="http://www.w3.org/2000/svg">
<path d="M253.593 127.23L257.531 120.41L259.263 121.41L259.5 121L259.737 121.41L261.469 120.41L265.407 127.231L263.675 128.231L267.612 135.051L269.344 134.051L273.282 140.871L271.55 141.871L275.488 148.691L277.22 147.691L281.157 154.512L279.425 155.512L283.363 162.332L285.095 161.332L289.033 168.152L287.301 169.152L291.239 175.973L292.971 174.973L296.908 181.793L295.176 182.793L299.114 189.613L300.846 188.613L304.784 195.434L303.052 196.434L306.989 203.254L308.721 202.254L312.659 209.074L310.927 210.074L314.865 216.895L316.597 215.895L320.535 222.715L318.802 223.715L322.74 230.535L324.472 229.535L328.41 236.355L326.678 237.355L330.616 244.176L332.348 243.176L336.285 249.996L334.553 250.996L338.491 257.816L340.223 256.816L344.161 263.637L342.429 264.637L346.366 271.457L348.098 270.457L352.036 277.277L350.304 278.277L354.242 285.098L355.974 284.098L359.912 290.918L358.18 291.918L362.117 298.738L363.849 297.738L367.787 304.559L366.055 305.559L369.993 312.379L371.725 311.379L375.662 318.199L373.93 319.199L377.868 326.02L379.6 325.02L383.538 331.84L381.806 332.84L382.043 333.25H381.569V335.25H373.693V333.25H365.818V335.25H357.943V333.25H350.067V335.25H342.192V333.25H334.316V335.25H326.441V333.25H318.566V335.25H310.69V333.25H302.815V335.25H294.939V333.25H287.064V335.25H279.189V333.25H271.313V335.25H263.438V333.25H255.562V335.25H247.687V333.25H239.811V335.25H231.936V333.25H224.061V335.25H216.185V333.25H208.31V335.25H200.434V333.25H192.559V335.25H184.684V333.25H176.808V335.25H168.933V333.25H161.057V335.25H153.182V333.25H145.306V335.25H137.431V333.25H136.957L137.194 332.84L135.462 331.84L139.4 325.019L141.132 326.019L145.07 319.199L143.338 318.199L147.275 311.379L149.007 312.379L152.945 305.559L151.213 304.559L155.151 297.738L156.883 298.738L160.82 291.918L159.088 290.918L163.026 284.098L164.758 285.098L168.696 278.277L166.964 277.277L170.902 270.457L172.634 271.457L176.571 264.637L174.839 263.637L178.777 256.816L180.509 257.816L184.447 250.996L182.715 249.996L186.652 243.176L188.384 244.176L192.322 237.355L190.59 236.355L194.528 229.535L196.26 230.535L200.198 223.715L198.465 222.715L202.403 215.895L204.135 216.895L208.073 210.074L206.341 209.074L210.279 202.254L212.011 203.254L215.948 196.434L214.216 195.434L218.154 188.613L219.886 189.613L223.824 182.793L222.092 181.793L226.029 174.973L227.762 175.973L231.699 169.152L229.967 168.152L233.905 161.332L235.637 162.332L239.575 155.512L237.843 154.512L241.78 147.691L243.512 148.691L247.45 141.871L245.718 140.871L249.656 134.051L251.388 135.051L255.325 128.23L253.593 127.23Z" stroke="#6562FF" stroke-width="4" stroke-dasharray="8 8"/>
<circle cx="258" cy="99" r="99" fill="#EBEFFF"/>
<circle cx="99" cy="348" r="99" fill="#EBEFFF"/>
<circle cx="415" cy="348" r="99" fill="#EBEFFF"/>
<path d="M236.9 265.71C236.03 265.68 235.25 265.59 234.74 265.29C233.75 264.72 233.3 263.61 233.3 262.02C233.3 259.5 234.68 258.84 236.93 258.6C236.93 258.21 236.96 257.85 236.99 257.46C237.02 256.83 237.05 256.2 237.11 255.57C237.35 252.33 239.75 249.75 242.93 249.75C247.61 249.75 248.96 251.4 248.96 253.77C248.96 255.57 248.15 257.07 246.8 256.95C245.27 256.8 243.29 256.86 241.85 257.19C241.4 257.28 241.49 257.91 242 257.82C243.86 257.46 246.35 257.37 247.52 258.03C248.51 258.6 248.96 259.74 248.96 261.33C248.96 263.64 247.76 264.6 245.63 264.75C245.57 267.12 245.42 269.43 245.21 271.68C244.97 273.93 243.74 275.7 241.25 275.7C238.7 275.7 237.5 273.93 237.26 271.68C237.05 269.7 236.96 267.69 236.9 265.71ZM250.035 266.76C250.065 260.91 253.905 256.74 259.815 256.74C265.785 256.74 268.635 261.81 268.635 266.76C268.575 271.77 265.065 276.21 259.725 276.21C254.145 276.21 250.035 272.16 250.035 266.76ZM258.435 268.44C258.195 268.89 259.065 269.34 259.485 268.77C260.295 267.57 260.505 265.95 260.535 264.45C260.565 263.76 259.545 263.79 259.515 264.3C259.395 265.77 259.155 267 258.435 268.44ZM278.123 257.43C277.133 258.45 276.443 259.83 276.323 261.27C276.233 261.99 276.863 262.08 277.013 261.45C277.793 257.88 279.623 256.5 282.383 256.71C284.873 256.89 285.713 259.47 285.683 261.15C285.683 262.74 285.323 265.53 282.413 265.98C281.453 266.13 280.343 265.71 279.413 264.96C278.963 264.57 278.723 264.96 278.723 265.47C278.663 267.63 278.543 269.82 278.333 271.95C278.093 274.2 276.863 275.97 274.373 275.97C271.823 275.97 270.563 274.2 270.383 271.95C270.053 267.57 270.203 263.22 270.263 258.84C270.293 257.85 270.803 257.04 271.583 256.92C272.213 256.8 273.083 256.74 274.013 256.74C275.753 256.74 277.583 257.01 278.123 257.43Z" fill="#6562FF"/>
<path d="M248.865 90.1016V102.992H246.678V90.1016H248.865ZM249.354 105.629V107.387H237.186V101.762H239.373V105.629H249.354ZM240.74 92.7969C240.74 95.2578 242.186 97.582 244.979 98.5195L243.865 100.238C241.854 99.5352 240.418 98.1289 239.646 96.332C238.846 98.2559 237.391 99.7988 235.311 100.551L234.178 98.832C237.049 97.8164 238.494 95.3359 238.494 92.7969V91.0781H240.74V92.7969ZM266.15 90.082V99.5547H263.963V90.082H266.15ZM256.619 100.375V102.191H263.982V100.375H266.15V107.523H254.471V100.375H256.619ZM256.619 105.766H263.982V103.891H256.619V105.766ZM256.521 90.8633C259.236 90.8438 261.268 92.543 261.268 95.0039C261.268 97.4062 259.236 99.1055 256.521 99.1055C253.787 99.1055 251.756 97.4062 251.756 95.0039C251.756 92.543 253.787 90.8438 256.521 90.8633ZM256.521 92.6797C254.979 92.6797 253.865 93.5781 253.885 95.0039C253.865 96.4102 254.979 97.3086 256.521 97.3281C258.045 97.3086 259.139 96.4102 259.139 95.0039C259.139 93.5781 258.045 92.6797 256.521 92.6797ZM274.236 93.3633C274.236 95.2773 275.35 97.1914 277.674 98.0703L276.521 99.7305C274.949 99.125 273.855 98.002 273.221 96.625C272.576 98.207 271.424 99.5547 269.744 100.258L268.572 98.5977C270.994 97.5234 272.127 95.3164 272.146 93.3633V91.1758H274.236V93.3633ZM283.826 90.1016V100.922H281.756V96.332H279.998V100.375H277.967V90.4336H279.998V94.5547H281.756V90.1016H283.826ZM277.869 101.215C281.561 101.215 283.904 102.426 283.924 104.457C283.904 106.488 281.561 107.719 277.869 107.719C274.139 107.719 271.814 106.488 271.814 104.457C271.814 102.426 274.139 101.215 277.869 101.215ZM277.869 102.855C275.428 102.855 273.982 103.422 273.982 104.457C273.982 105.512 275.428 106.059 277.869 106.059C280.291 106.059 281.736 105.512 281.736 104.457C281.736 103.422 280.291 102.855 277.869 102.855Z" fill="#1A1869"/>
<path d="M88.4707 339.082V356.738H86.4004V347.793H84.584V355.879H82.5332V339.395H84.584V345.996H86.4004V339.082H88.4707ZM78.6465 343.594C78.6465 346.738 79.7012 349.629 82.3184 350.977L81.0488 352.637C79.3691 351.738 78.2656 350.186 77.6504 348.262C77.0449 350.459 75.9414 352.227 74.1934 353.262L72.8652 351.602C75.4824 350.117 76.5371 347.031 76.5371 343.594V342.754H73.3926V341.016H81.5371V342.754H78.6465V343.594ZM100.932 340.781V342.5H90.4629V340.781H94.623V339.004H96.791V340.781H100.932ZM95.6973 343.184C98.2559 343.184 99.9941 344.473 100.014 346.406C99.9941 348.34 98.2559 349.629 95.6973 349.629C93.1387 349.629 91.3613 348.34 91.3613 346.406C91.3613 344.473 93.1387 343.184 95.6973 343.184ZM95.6973 344.824C94.3496 344.824 93.4707 345.41 93.4707 346.406C93.4707 347.402 94.3496 347.969 95.6973 347.949C97.0449 347.969 97.9434 347.402 97.9434 346.406C97.9434 345.41 97.0449 344.824 95.6973 344.824ZM104.369 339.082V343.77H106.83V345.547H104.369V350.137H102.201V339.082H104.369ZM104.369 350.957V356.738H102.201V352.695H92.6113V350.957H104.369ZM113.236 342.363C113.236 344.277 114.35 346.191 116.674 347.07L115.521 348.73C113.949 348.125 112.855 347.002 112.221 345.625C111.576 347.207 110.424 348.555 108.744 349.258L107.572 347.598C109.994 346.523 111.127 344.316 111.146 342.363V340.176H113.236V342.363ZM122.826 339.102V349.922H120.756V345.332H118.998V349.375H116.967V339.434H118.998V343.555H120.756V339.102H122.826ZM116.869 350.215C120.561 350.215 122.904 351.426 122.924 353.457C122.904 355.488 120.561 356.719 116.869 356.719C113.139 356.719 110.814 355.488 110.814 353.457C110.814 351.426 113.139 350.215 116.869 350.215ZM116.869 351.855C114.428 351.855 112.982 352.422 112.982 353.457C112.982 354.512 114.428 355.059 116.869 355.059C119.291 355.059 120.736 354.512 120.736 353.457C120.736 352.422 119.291 351.855 116.869 351.855Z" fill="#1A1869"/>
<path d="M381.363 329.918V331.168C381.363 332.75 381.363 334.957 380.875 338.004L378.727 337.828C379.146 335.152 379.195 333.18 379.215 331.656H372.281V329.918H381.363ZM376.91 334.957V340.172C378.707 340.104 380.553 339.977 382.242 339.762L382.359 341.383C378.707 341.969 374.664 342.047 371.559 342.027L371.344 340.289C372.389 340.279 373.551 340.27 374.762 340.23V334.957H376.91ZM385.348 328.082V335.27H387.906V337.105H385.348V345.738H383.16V328.082H385.348ZM403.531 328.082V345.738H401.344V328.082H403.531ZM398.258 329.957C398.258 335.211 396.227 339.684 390.035 342.613L388.902 340.875C393.521 338.678 395.67 335.689 396.051 331.676H389.801V329.957H398.258ZM421.266 328.082V345.738H419.195V336.734H417.203V344.84H415.211V328.414H417.203V334.996H419.195V328.082H421.266ZM413.219 330.172V331.93H408.805V339.781C410.729 339.762 412.311 339.664 414.098 339.332L414.254 341.109C412.125 341.539 410.27 341.598 407.809 341.617H406.617V330.172H413.219ZM439.469 336.09V337.73H423.336V336.09H439.469ZM437.516 338.785V342.809H427.398V344.039H438.043V345.543H425.23V341.402H435.367V340.309H425.211V338.785H437.516ZM437.477 328.473V332.457H427.535V333.609H437.789V335.094H425.387V331.051H435.309V329.977H425.328V328.473H437.477ZM454.312 329.684V331.461H448.434V339.684C451.188 339.664 453.131 339.547 455.328 339.137L455.562 340.895C453.082 341.383 450.953 341.48 447.652 341.48H446.246V329.684H454.312ZM460.211 328.082V345.758H458.043V336.07H453.375V334.293H458.043V328.082H460.211ZM368.141 350.082V353.637H370.602V355.434H368.141V358.949H365.973V350.082H368.141ZM368.141 359.711V364.34H358.766V365.805H368.688V367.523H356.617V362.758H365.973V361.391H356.598V359.711H368.141ZM359.098 350.668C361.793 350.668 363.766 352.289 363.785 354.633C363.766 356.938 361.793 358.578 359.098 358.578C356.402 358.578 354.391 356.938 354.41 354.633C354.391 352.289 356.402 350.668 359.098 350.668ZM359.098 352.426C357.613 352.426 356.52 353.285 356.539 354.633C356.52 355.961 357.613 356.859 359.098 356.859C360.582 356.859 361.676 355.961 361.676 354.633C361.676 353.285 360.582 352.426 359.098 352.426ZM385.914 351.703V353.402C385.895 355.59 385.895 358.051 385.211 361.742L383.023 361.508C383.707 358.07 383.707 355.561 383.727 353.441H373.18V351.703H385.914ZM387.594 363.676V365.453H371.5V363.676H377.438V357.543H379.586V363.676H387.594ZM403.492 350.102V359.887H401.305V350.102H403.492ZM395.367 352.426C395.367 354.652 396.852 356.762 399.645 357.562L398.609 359.301C396.549 358.656 395.064 357.348 394.273 355.668C393.463 357.484 391.959 358.92 389.84 359.594L388.785 357.875C391.637 356.996 393.121 354.75 393.121 352.426V350.727H395.367V352.426ZM403.59 360.766V362.484H401.363V365.766H403.746V367.523H391.402V365.766H393.805V362.484H391.559V360.766H403.59ZM395.953 365.766H399.215V362.484H395.953V365.766ZM422.164 359.203V360.941H406.07V359.203H422.164ZM420.348 365.629V367.387H408.062V362.25H410.23V365.629H420.348ZM414.098 350.648C417.945 350.648 420.445 351.996 420.465 354.223C420.445 356.469 417.945 357.836 414.098 357.836C410.25 357.836 407.73 356.469 407.73 354.223C407.73 351.996 410.25 350.648 414.098 350.648ZM414.098 352.387C411.539 352.387 409.977 353.051 409.996 354.223C409.977 355.414 411.539 356.078 414.098 356.059C416.676 356.078 418.219 355.414 418.219 354.223C418.219 353.051 416.676 352.387 414.098 352.387ZM434.41 354.32C434.391 357.465 435.973 360.668 438.707 361.977L437.379 363.715C435.465 362.748 434.088 360.883 433.336 358.637C432.564 361.039 431.119 363.031 429.098 364.047L427.77 362.309C430.602 360.961 432.223 357.582 432.242 354.32V351.508H434.41V354.32ZM441.93 350.082V356.996H444.645V358.852H441.93V367.738H439.762V350.082H441.93ZM459.312 350.102V354.398H461.793V356.215H459.312V360.59H457.145V350.102H459.312ZM459.312 361.371V367.523H447.887V361.371H459.312ZM450.016 363.07V365.766H457.184V363.07H450.016ZM454.117 351V356.176H448.238V358.07C451.236 358.061 453.287 357.963 455.699 357.562L455.934 359.281C453.297 359.77 451.012 359.848 447.516 359.848H446.07V354.535H451.988V352.738H446.051V351H454.117ZM478.785 357.152V358.871H462.672V357.152H478.785ZM476.871 354.301V356.02H464.723V350.531H476.715V352.27H466.891V354.301H476.871ZM476.754 360.082V364.516H466.715V365.863H477.242V367.562H464.586V362.953H474.625V361.723H464.566V360.082H476.754Z" fill="#1A1869"/>
</svg>
