<svg width="19" height="19" viewBox="0 0 19 19" fill="none" xmlns="http://www.w3.org/2000/svg">
<path d="M2 16C1.45 16 0.979167 15.8042 0.5875 15.4125C0.195833 15.0208 0 14.55 0 14V13.2C0 12.6333 0.145833 12.1125 0.4375 11.6375C0.729167 11.1625 1.11667 10.8 1.6 10.55C2.63333 10.0333 3.68333 9.64583 4.75 9.3875C5.81667 9.12917 6.9 9 8 9C8.23333 9 8.46667 9.00417 8.7 9.0125C8.93333 9.02083 9.16667 9.04167 9.4 9.075C9.58333 9.09167 9.72917 9.1625 9.8375 9.2875C9.94583 9.4125 10 9.56667 10 9.75C10.0333 10.5333 10.225 11.2708 10.575 11.9625C10.925 12.6542 11.3917 13.2417 11.975 13.725C12.0917 13.8083 12.1833 13.9125 12.25 14.0375C12.3167 14.1625 12.35 14.3 12.35 14.45V15C12.35 15.2833 12.2542 15.5208 12.0625 15.7125C11.8708 15.9042 11.6333 16 11.35 16H2ZM8 8C6.9 8 5.95833 7.60833 5.175 6.825C4.39167 6.04167 4 5.1 4 4C4 2.9 4.39167 1.95833 5.175 1.175C5.95833 0.391667 6.9 0 8 0C9.1 0 10.0417 0.391667 10.825 1.175C11.6083 1.95833 12 2.9 12 4C12 5.1 11.6083 6.04167 10.825 6.825C10.0417 7.60833 9.1 8 8 8ZM15.5 10C15.7833 10 16.0208 9.90417 16.2125 9.7125C16.4042 9.52083 16.5 9.28333 16.5 9C16.5 8.71667 16.4042 8.47917 16.2125 8.2875C16.0208 8.09583 15.7833 8 15.5 8C15.2167 8 14.9792 8.09583 14.7875 8.2875C14.5958 8.47917 14.5 8.71667 14.5 9C14.5 9.28333 14.5958 9.52083 14.7875 9.7125C14.9792 9.90417 15.2167 10 15.5 10ZM15.65 18.65L14.65 17.65C14.6167 17.6167 14.5667 17.5 14.5 17.3V12.85C13.7667 12.6333 13.1667 12.2208 12.7 11.6125C12.2333 11.0042 12 10.3 12 9.5C12 8.53333 12.3417 7.70833 13.025 7.025C13.7083 6.34167 14.5333 6 15.5 6C16.4667 6 17.2917 6.34167 17.975 7.025C18.6583 7.70833 19 8.53333 19 9.5C19 10.25 18.7875 10.9167 18.3625 11.5C17.9375 12.0833 17.4 12.5 16.75 12.75L17.65 13.65C17.75 13.75 17.8 13.8667 17.8 14C17.8 14.1333 17.75 14.25 17.65 14.35L16.85 15.15C16.75 15.25 16.7 15.3667 16.7 15.5C16.7 15.6333 16.75 15.75 16.85 15.85L17.65 16.65C17.75 16.75 17.8 16.8667 17.8 17C17.8 17.1333 17.75 17.25 17.65 17.35L16.35 18.65C16.25 18.75 16.1333 18.8 16 18.8C15.8667 18.8 15.75 18.75 15.65 18.65Z" fill="white"/>
</svg>
