<svg width="69" height="69" viewBox="0 0 69 69" fill="none" xmlns="http://www.w3.org/2000/svg">
<mask id="mask0_1085_1248" style="mask-type:alpha" maskUnits="userSpaceOnUse" x="0" y="0" width="69" height="69">
<rect width="68.3281" height="68.3281" fill="#96A8FE"/>
</mask>
<g mask="url(#mask0_1085_1248)">
<path d="M7.75751 59.7871C7.23556 59.7871 6.76106 59.6566 6.33401 59.3956C5.90696 59.1347 5.57481 58.7907 5.33756 58.3636C5.10031 57.9366 4.96982 57.4739 4.9461 56.9757C4.92237 56.4775 5.05286 55.9911 5.33756 55.5166L31.6724 9.96452C31.9571 9.49002 32.3248 9.13414 32.7756 8.89689C33.2263 8.65964 33.689 8.54102 34.1635 8.54102C34.638 8.54102 35.1006 8.65964 35.5514 8.89689C36.0022 9.13414 36.3699 9.49002 36.6546 9.96452L62.9894 55.5166C63.2741 55.9911 63.4046 56.4775 63.3809 56.9757C63.3572 57.4739 63.2267 57.9366 62.9894 58.3636C62.7522 58.7907 62.42 59.1347 61.993 59.3956C61.5659 59.6566 61.0914 59.7871 60.5695 59.7871H7.75751ZM12.6686 54.0931H55.6584L34.1635 17.082L12.6686 54.0931ZM34.1635 51.2461C34.9701 51.2461 35.6463 50.9733 36.192 50.4276C36.7377 49.8819 37.0105 49.2057 37.0105 48.3991C37.0105 47.5924 36.7377 46.9163 36.192 46.3706C35.6463 45.8249 34.9701 45.5521 34.1635 45.5521C33.3568 45.5521 32.6807 45.8249 32.135 46.3706C31.5893 46.9163 31.3165 47.5924 31.3165 48.3991C31.3165 49.2057 31.5893 49.8819 32.135 50.4276C32.6807 50.9733 33.3568 51.2461 34.1635 51.2461ZM34.1635 42.7051C34.9701 42.7051 35.6463 42.4322 36.192 41.8866C36.7377 41.3409 37.0105 40.6647 37.0105 39.8581V31.3171C37.0105 30.5104 36.7377 29.8342 36.192 29.2886C35.6463 28.7429 34.9701 28.4701 34.1635 28.4701C33.3568 28.4701 32.6807 28.7429 32.135 29.2886C31.5893 29.8342 31.3165 30.5104 31.3165 31.3171V39.8581C31.3165 40.6647 31.5893 41.3409 32.135 41.8866C32.6807 42.4322 33.3568 42.7051 34.1635 42.7051Z" fill="#96A8FE"/>
</g>
</svg>
