<svg width="109" height="93" viewBox="0 0 109 93" fill="none" xmlns="http://www.w3.org/2000/svg">
<path d="M93.0607 24.1035H8.66797V44.8229H93.0607V24.1035Z" fill="#DDDDDD"/>
<path d="M101.031 4H3.96878C1.77688 4 0 5.58343 0 7.53669V14.4633C0 16.4166 1.77688 18 3.96878 18H101.031C103.223 18 105 16.4166 105 14.4633V7.53669C105 5.58343 103.223 4 101.031 4Z" fill="#8294F8"/>
<path d="M104.7 50H11.3002C8.92529 50 7 51.8788 7 54.1964V71.8036C7 74.1212 8.92529 76 11.3002 76H104.7C107.075 76 109 74.1212 109 71.8036V54.1964C109 51.8788 107.075 50 104.7 50Z" fill="#FE7058"/>
<path d="M98.2391 75.8672H3.49578C1.56511 75.8672 0 77.4418 0 79.3841V89.4685C0 91.4109 1.56511 92.9855 3.49578 92.9855H98.2391C100.17 92.9855 101.735 91.4109 101.735 89.4685V79.3841C101.735 77.4418 100.17 75.8672 98.2391 75.8672Z" fill="#FF3E40"/>
<path d="M96.0468 21H18.9572C11.806 21 6 26.8335 6 34.0356C6 41.23 11.7984 47.0712 18.9572 47.0712H96.0468" stroke="#0B1852" stroke-width="6" stroke-linecap="round" stroke-linejoin="round"/>
<path d="M14 4H10V18H14V4Z" fill="#667CF7"/>
<path d="M96 4H92V18H96V4Z" fill="#667CF7"/>
<path d="M30 50H18V76H30V50Z" fill="#FFB8A4"/>
<path d="M99 50H87V76H99V50Z" fill="#FFB8A4"/>
<path d="M18 76H11V93H18V76Z" fill="#0B1852"/>
<path d="M90 76H83V93H90V76Z" fill="#0B1852"/>
</svg>
