<svg width="110" height="110" viewBox="0 0 110 110" fill="none" xmlns="http://www.w3.org/2000/svg">
<mask id="mask0_851_3731" style="mask-type:alpha" maskUnits="userSpaceOnUse" x="0" y="0" width="110" height="110">
<rect width="110" height="110" fill="#D9D9D9"/>
</mask>
<g mask="url(#mask0_851_3731)">
<path d="M10.8193 57.4049V54.7695C10.8193 52.9362 11.3159 51.2556 12.3089 49.7279C13.302 48.2001 14.677 47.0543 16.4339 46.2904C18.42 45.4501 20.4634 44.8008 22.5641 44.3424C24.6648 43.8841 26.861 43.6549 29.1527 43.6549C31.4443 43.6549 33.6405 43.8841 35.7412 44.3424C37.8419 44.8008 39.8853 45.4501 41.8714 46.2904C43.6284 47.0543 45.0034 48.2001 45.9964 49.7279C46.9895 51.2556 47.486 52.9362 47.486 54.7695V57.4049H10.8193ZM65.8193 57.4049V54.7695C65.8193 52.9362 66.3159 51.2556 67.3089 49.7279C68.302 48.2001 69.677 47.0543 71.4339 46.2904C73.42 45.4501 75.4634 44.8008 77.5641 44.3424C79.6648 43.8841 81.861 43.6549 84.1527 43.6549C86.4443 43.6549 88.6405 43.8841 90.7412 44.3424C92.8419 44.8008 94.8853 45.4501 96.8714 46.2904C98.6284 47.0543 100.003 48.2001 100.996 49.7279C101.989 51.2556 102.486 52.9362 102.486 54.7695V57.4049H65.8193ZM29.1527 39.0716C26.6318 39.0716 24.4739 38.174 22.6787 36.3789C20.8836 34.5838 19.986 32.4258 19.986 29.9049C19.986 27.3841 20.8836 25.2261 22.6787 23.431C24.4739 21.6359 26.6318 20.7383 29.1527 20.7383C31.6735 20.7383 33.8315 21.6359 35.6266 23.431C37.4218 25.2261 38.3193 27.3841 38.3193 29.9049C38.3193 32.4258 37.4218 34.5838 35.6266 36.3789C33.8315 38.174 31.6735 39.0716 29.1527 39.0716ZM84.1527 39.0716C81.6318 39.0716 79.4739 38.174 77.6787 36.3789C75.8836 34.5838 74.986 32.4258 74.986 29.9049C74.986 27.3841 75.8836 25.2261 77.6787 23.431C79.4739 21.6359 81.6318 20.7383 84.1527 20.7383C86.6735 20.7383 88.8315 21.6359 90.6266 23.431C92.4218 25.2261 93.3193 27.3841 93.3193 29.9049C93.3193 32.4258 92.4218 34.5838 90.6266 36.3789C88.8315 38.174 86.6735 39.0716 84.1527 39.0716Z" fill="#FE7058"/>
<path d="M27.0898 82.2695L25.1419 80.3216H88.2773L86.3294 82.2695C85.6419 82.957 85.2982 83.7591 85.2982 84.6758C85.2982 85.5924 85.6419 86.3945 86.3294 87.082C87.0169 87.7695 87.819 88.1133 88.7357 88.1133C89.6523 88.1133 90.4544 87.7695 91.1419 87.082L99.2774 78.9466C100.194 78.03 100.652 76.9605 100.652 75.7383C100.652 74.5161 100.194 73.4466 99.2774 72.53L91.1419 64.3945C90.4544 63.707 89.6523 63.3633 88.7357 63.3633C87.819 63.3633 87.0169 63.707 86.3294 64.3945C85.6419 65.082 85.2982 65.8841 85.2982 66.8008C85.2982 67.7175 85.6037 68.5195 86.2149 69.207L88.1628 71.155H25.0273L26.9753 69.207C27.6628 68.5195 28.0065 67.7175 28.0065 66.8008C28.0065 65.8841 27.6628 65.082 26.9753 64.3945C26.2878 63.707 25.4857 63.3633 24.569 63.3633C23.6523 63.3633 22.8503 63.707 22.1628 64.3945L14.0273 72.53C13.1107 73.4466 12.6523 74.5161 12.6523 75.7383C12.6523 76.9605 13.1107 78.03 14.0273 78.9466L22.1628 87.082C22.8503 87.7695 23.6523 88.1133 24.569 88.1133C25.4857 88.1133 26.2878 87.7695 26.9753 87.082C27.6628 86.3945 28.0065 85.5924 28.0065 84.6758C28.0065 83.7591 27.701 82.957 27.0898 82.2695Z" fill="#0B1852"/>
</g>
</svg>
