<svg width="122" height="64" viewBox="0 0 122 64" fill="none" xmlns="http://www.w3.org/2000/svg">
<g clip-path="url(#clip0_851_3737)">
<path d="M90.2442 19.2305H27.7471V55.8592H90.2442V19.2305Z" fill="#617DFF"/>
<path d="M90 19H28V50H90V19Z" fill="#071856"/>
<path d="M58.9932 64.0003C76.2499 64.0003 90.2393 60.3556 90.2393 55.8595C90.2393 51.3635 76.2499 47.7188 58.9932 47.7188C41.7364 47.7188 27.7471 51.3635 27.7471 55.8595C27.7471 60.3556 41.7364 64.0003 58.9932 64.0003Z" fill="#617DFF"/>
<path d="M113 19H108V47H113V19Z" fill="#FE7A53"/>
<path d="M110.5 62C115.747 62 120 57.9706 120 53C120 48.0294 115.747 44 110.5 44C105.253 44 101 48.0294 101 53C101 57.9706 105.253 62 110.5 62Z" fill="#FF3E40"/>
<path d="M58.9932 58.9242C76.2499 58.9242 90.2393 55.2794 90.2393 50.7834C90.2393 46.2873 76.2499 42.6426 58.9932 42.6426C41.7364 42.6426 27.7471 46.2873 27.7471 50.7834C27.7471 55.2794 41.7364 58.9242 58.9932 58.9242Z" fill="#071856"/>
<path d="M60.4732 0.124945L117.398 17.9728C119.927 18.7656 119.927 22.2946 117.398 23.0874L60.4732 40.9353C59.939 41.1045 59.3608 41.1045 58.8266 40.9353L1.89653 23.0874C-0.632175 22.2946 -0.632175 18.7656 1.89653 17.9728L58.8217 0.124945C59.3559 -0.0442524 59.9341 -0.0442524 60.4683 0.124945H60.4732Z" fill="#071856"/>
</g>
<defs>
<clipPath id="clip0_851_3737">
<rect width="122" height="64" fill="white"/>
</clipPath>
</defs>
</svg>
