<svg width="103" height="103" viewBox="0 0 103 103" fill="none" xmlns="http://www.w3.org/2000/svg">
<mask id="mask0_851_3702" style="mask-type:alpha" maskUnits="userSpaceOnUse" x="-2" y="-2" width="107" height="107">
<rect x="-1" y="-1" width="105" height="105" fill="#8294F8" stroke="#8294F8" stroke-width="2"/>
</mask>
<g mask="url(#mask0_851_3702)">
<path d="M47.7887 6.80611L47.7734 6.82147L47.7587 6.83749C46.8003 7.88301 46.3156 9.14439 46.3156 10.571C46.3156 11.9986 46.8021 13.2421 47.7887 14.2287L49.7647 16.2047C44.9153 16.4027 40.3334 17.4364 36.0265 19.3103C31.2314 21.3968 27.0486 24.2202 23.4872 27.7816C19.9258 31.343 17.1023 35.5258 15.0159 40.321C12.9198 45.1382 11.875 50.2996 11.875 55.7945C11.875 61.2893 12.9198 66.4507 15.0159 71.2679C17.1023 76.0631 19.9258 80.2459 23.4872 83.8073C27.0486 87.3687 31.2314 90.1922 36.0265 92.2786C40.8438 94.3747 46.0051 95.4195 51.5 95.4195C61.7592 95.4195 70.6554 92.003 78.1383 85.1803C85.615 78.3633 89.8754 69.8427 90.9039 59.665C91.0879 58.2457 90.5852 57.0221 89.4777 56.0992C88.4349 55.2302 87.2055 54.7945 85.8333 54.7945C84.4476 54.7945 83.212 55.2573 82.1707 56.1684C81.1265 57.0821 80.5091 58.2533 80.3353 59.6364C79.365 66.9069 76.156 72.9068 70.6911 77.6798C65.2248 82.4543 58.8429 84.8361 51.5 84.8361C43.392 84.8361 36.5485 82.0236 30.9097 76.3848C25.2709 70.7459 22.4583 63.9025 22.4583 55.7945C22.4583 47.6864 25.2709 40.843 30.9097 35.2042C36.1219 29.992 42.3633 27.1946 49.6812 26.8011L47.7887 28.6936C46.8021 29.6802 46.3156 30.9237 46.3156 32.3512C46.3156 33.7779 46.8003 35.0392 47.7587 36.0848L47.7734 36.1008L47.7887 36.1162C48.8216 37.149 50.0807 37.706 51.5234 37.7497C52.9878 37.7941 54.2714 37.2706 55.3186 36.2234L66.3696 25.1724C67.3623 24.1797 67.8427 22.9152 67.8427 21.4611C67.8427 20.007 67.3623 18.7425 66.3696 17.7499L55.3186 6.69882C54.2714 5.65169 52.9878 5.12815 51.5234 5.17253C50.0807 5.21624 48.8216 5.77325 47.7887 6.80611Z" fill="#8294F8" stroke="#8294F8" stroke-width="2"/>
</g>
</svg>
