<svg width="721" height="115" viewBox="0 0 721 115" fill="none" xmlns="http://www.w3.org/2000/svg">
<path d="M14.4219 6.71875V8.64844H0.863281V6.71875H6.44922V4.30664H8.86133V6.71875H14.4219ZM7.64258 9.66406C10.918 9.68945 13.1523 11.3145 13.1523 13.8027C13.1523 16.291 10.918 17.9414 7.64258 17.9414C4.3418 17.9414 2.10742 16.291 2.10742 13.8027C2.10742 11.3145 4.3418 9.68945 7.64258 9.66406ZM7.64258 11.5176C5.71289 11.5176 4.41797 12.4062 4.44336 13.8027C4.41797 15.2246 5.71289 16.0625 7.64258 16.0625C9.57227 16.0625 10.8672 15.2246 10.8926 13.8027C10.8672 12.4062 9.57227 11.5176 7.64258 11.5176ZM18.7129 4.4082V10.5781H22.0137V12.584H18.7129V18.627H16.3008V4.4082H18.7129ZM18.7129 19.7949V27.1582H16.3008V21.75H3.68164V19.7949H18.7129ZM29.6055 5.44922C32.6016 5.42383 34.9121 7.16309 35.4199 9.71484H39.8633V4.4082H42.2754V16.6211H39.8633V11.6953H35.4453C34.9502 14.3105 32.627 16.0625 29.6055 16.0625C26.127 16.0625 23.6387 13.8789 23.6387 10.7305C23.6387 7.63281 26.127 5.42383 29.6055 5.44922ZM29.6055 7.45508C27.4473 7.45508 25.9492 8.77539 25.9492 10.7305C25.9492 12.6855 27.4473 14.0312 29.6055 14.0312C31.7129 14.0312 33.2109 12.6855 33.2109 10.7305C33.2109 8.77539 31.7129 7.45508 29.6055 7.45508ZM29.834 17.7129V20.3535H39.8633V17.7129H42.2754V26.8789H27.4473V17.7129H29.834ZM29.834 24.8984H39.8633V22.2578H29.834V24.8984ZM65.5332 18.7793L53.5996 24.543V21.8008L62.3086 17.8145V17.6875L53.5996 13.7266V10.959L65.5332 16.748V18.7793ZM86.6582 6.41406C86.6328 9.43555 90.3398 12.2793 94.8086 12.8633L93.8691 14.8438C90.1494 14.2471 86.874 12.3174 85.4141 9.63867C83.916 12.3301 80.6533 14.2471 76.959 14.8438L75.9941 12.8633C80.4629 12.2793 84.1191 9.46094 84.1445 6.41406V5.16992H86.6582V6.41406ZM95.748 17.0781V19.0586H86.5059V27.1582H84.1445V19.0586H75.0039V17.0781H95.748ZM115.35 4.4082V10.1465H118.65V12.1016H115.35V17.916H112.938V4.4082H115.35ZM109.104 6.0332C109.104 11.9238 105.117 16.1641 98.4395 18.0938L97.4492 16.1387C102.769 14.6279 106.057 11.6699 106.488 7.98828H98.4648V6.0332H109.104ZM108.088 18.1699C112.684 18.1699 115.604 19.8711 115.604 22.6387C115.604 25.4316 112.684 27.1328 108.088 27.1328C103.518 27.1328 100.521 25.4316 100.547 22.6387C100.521 19.8711 103.518 18.1699 108.088 18.1699ZM108.088 20.0742C104.914 20.0742 102.908 21.0391 102.934 22.6387C102.908 24.2383 104.914 25.2285 108.088 25.2285C111.236 25.2285 113.242 24.2383 113.242 22.6387C113.242 21.0391 111.236 20.0742 108.088 20.0742ZM138.811 4.43359V21.0898H136.398V4.43359H138.811ZM139.496 24.7207V26.6758H123.932V19.5156H126.369V24.7207H139.496ZM128.223 7.9375C128.197 11.2637 130.33 14.3105 133.834 15.5293L132.59 17.459C129.962 16.4814 128.02 14.5518 127.004 12.0762C126.001 14.7168 124.033 16.8369 121.367 17.8652L120.072 15.9609C123.652 14.6406 125.76 11.3652 125.76 7.9375V5.67773H128.223V7.9375ZM150.389 9.25781C150.389 11.9238 152.598 14.4375 156.051 15.4023L154.908 17.2812C152.28 16.5322 150.287 14.9072 149.246 12.8125C148.256 15.1611 146.275 17.0146 143.559 17.8652L142.416 16.0117C145.869 14.8945 148.002 12.1777 148.002 9.25781V8.97852H143.051V7.04883H148.002V4.30664H150.414V7.04883H155.34V8.97852H150.389V9.25781ZM161.383 4.4082V18.1953H158.971V12.7617H154.629V10.7812H158.971V4.4082H161.383ZM153.766 18.7031C158.514 18.7031 161.459 20.2266 161.459 22.8926C161.459 25.584 158.514 27.1328 153.766 27.1074C148.992 27.1328 146.047 25.584 146.072 22.8926C146.047 20.2266 148.992 18.7031 153.766 18.7031ZM153.766 20.582C150.439 20.582 148.459 21.4199 148.459 22.8926C148.459 24.3652 150.439 25.2539 153.766 25.2539C157.117 25.2539 159.072 24.3652 159.072 22.8926C159.072 21.4199 157.117 20.582 153.766 20.582Z" fill="#F1F3F7" fill-opacity="0.8"/>
<path d="M23.4844 62.3125C23.4844 67.6562 29.4375 73.0469 38.4844 74.2188L36.4219 78.4375C29.2266 77.3594 23.5078 73.8203 20.7656 69.0156C17.9766 73.8203 12.2812 77.3594 5.15625 78.4375L3.09375 74.2188C12.0469 73.0469 18 67.6562 18 62.3125V60.1562H23.4844V62.3125ZM40.0312 82.0938V86.4062H23.2031V101.172H18.0469V86.4062H1.40625V82.0938H40.0312ZM76.3125 58.7969V69.1094H82.2188V73.375H76.3125V83.6406H71.1094V58.7969H76.3125ZM64.5938 61.7031C64.5938 72.8594 57.3281 80.7344 44.8125 84.2969L42.75 80.0781C52.3594 77.4531 58.0547 72.2734 58.9688 65.9219H44.6719V61.7031H64.5938ZM62.625 84.1562C71.2031 84.1562 76.7812 87.4375 76.7812 92.6406C76.7812 97.9375 71.2031 101.125 62.625 101.125C54.0938 101.125 48.4219 97.9375 48.4688 92.6406C48.4219 87.4375 54.0938 84.1562 62.625 84.1562ZM62.625 88.2344C57.0469 88.2344 53.5781 89.8281 53.625 92.6406C53.5781 95.4062 57.0469 97.0469 62.625 97.0469C68.2031 97.0469 71.6719 95.4062 71.6719 92.6406C71.6719 89.8281 68.2031 88.2344 62.625 88.2344ZM119.672 58.8438V89.7812H114.422V58.8438H119.672ZM120.844 96.1094V100.328H91.6406V86.8281H96.8906V96.1094H120.844ZM100.172 65.3125C100.172 71.2188 103.641 76.7969 110.344 79.0469L107.672 83.1719C102.844 81.4844 99.3984 78.1094 97.5469 73.7969C95.625 78.4141 92.1328 82.1172 87.1406 83.9219L84.4219 79.7969C91.3125 77.3594 94.7812 71.4062 94.7812 65.3125V61.1875H100.172V65.3125ZM141.094 67.8438C141.094 72.4844 144.703 77.0781 151.359 78.8594L148.922 82.8906C144.023 81.5547 140.508 78.6953 138.562 75.0156C136.734 79.1875 133.195 82.4688 128.156 83.9688L125.719 79.9375C132.328 77.9219 135.891 72.9531 135.891 67.8438V67.6094H127.031V63.4844H135.891V58.6094H141.141V63.4844H149.953V67.6094H141.094V67.8438ZM161.344 58.7969V84.4375H156.141V74.6406H148.688V70.4219H156.141V58.7969H161.344ZM147 85.2812C155.953 85.2812 161.484 88.1406 161.484 93.1562C161.484 98.2188 155.953 101.125 147 101.125C138.094 101.125 132.562 98.2188 132.609 93.1562C132.562 88.1406 138.094 85.2812 147 85.2812ZM147 89.2656C141.094 89.3125 137.766 90.625 137.766 93.1562C137.766 95.6875 141.094 97.0938 147 97.0938C153 97.0938 156.281 95.6875 156.281 93.1562C156.281 90.625 153 89.3125 147 89.2656ZM175.594 93.6719L171.656 106.797H167.203L169.641 93.6719H175.594ZM202.547 61.8906C208.289 61.8906 212.531 66.6719 213.281 74.4062H221.344V58.7969H226.5V101.219H221.344V78.625H213.328C212.766 86.8047 208.453 91.8438 202.547 91.8438C196.172 91.8438 191.672 86.0781 191.672 76.8438C191.672 67.7031 196.172 61.8906 202.547 61.8906ZM202.547 66.5781C199.031 66.5781 196.641 70.375 196.688 76.8438C196.641 83.3594 199.031 87.1562 202.547 87.1562C206.062 87.1562 208.406 83.3594 208.453 76.8438C208.406 70.375 206.062 66.5781 202.547 66.5781ZM269.016 83.6875V87.6719H238.031V83.6875H250.969V80.0781H256.172V83.6875H269.016ZM253.453 89.1719C261.188 89.1719 265.781 91.3281 265.781 95.125C265.781 99.0625 261.188 101.172 253.453 101.172C245.719 101.172 241.078 99.0625 241.125 95.125C241.078 91.3281 245.719 89.1719 253.453 89.1719ZM253.453 92.7812C249.094 92.8281 246.656 93.5781 246.656 95.125C246.656 96.7656 249.094 97.5625 253.453 97.5625C257.766 97.5625 260.156 96.7656 260.203 95.125C260.156 93.5781 257.766 92.8281 253.453 92.7812ZM244.266 60.6719V64.75H238.406V74.5C240.422 74.4062 242.461 74.1953 244.734 73.7031L245.109 77.7812C241.406 78.5312 238.594 78.5781 235.266 78.5781H233.297V60.6719H244.266ZM258.234 60.6719V64.75H251.531V74.5C254.789 74.4531 256.945 74.2422 259.453 73.6562L259.875 77.7812C256.594 78.5312 253.875 78.5781 248.578 78.5781H246.375V60.6719H258.234ZM268.312 58.7969V81.3906H263.203V71.2188H256.781V67.2344H263.203V58.7969H268.312ZM310.5 58.7969V101.172H305.531V58.7969H310.5ZM301.5 59.8281V99.1562H296.578V79.6562H289.031C286.547 84.5312 282.562 88.75 276.562 92.2188L273.609 88.5156C282.398 83.3359 286.406 76.7031 287.203 68.1719H275.766V63.9531H292.359C292.359 68.0547 291.867 71.8984 290.719 75.4844H296.578V59.8281H301.5ZM360 58.7969V75.6719H366.516V79.9844H360V101.172H354.844V58.7969H360ZM351.562 65.3125V69.4844H326.578V65.3125H336.609V59.4062H341.812V65.3125H351.562ZM339.234 72.25C345.328 72.25 349.875 76.375 349.875 82.2344C349.875 88.0938 345.328 92.1719 339.234 92.1719C333.047 92.1719 328.5 88.0938 328.547 82.2344C328.5 76.375 333.047 72.25 339.234 72.25ZM339.234 76.5156C335.906 76.5156 333.516 78.7656 333.516 82.2344C333.516 85.7031 335.906 87.9062 339.234 87.8594C342.469 87.9062 344.859 85.7031 344.906 82.2344C344.859 78.7656 342.469 76.5156 339.234 76.5156ZM407.766 75.1562V79.4219H401.484V101.078H396.281V58.7969H401.484V75.1562H407.766ZM374.953 62.9219V86.3125C380.602 86.2188 386.625 85.7266 393 84.3906L393.562 88.7969C386.438 90.2031 379.641 90.625 373.359 90.625H369.797V62.9219H374.953ZM448.5 91.75V96.0156H409.781V91.75H418.734V81.0156C415.359 79.0938 413.32 76.0703 413.344 72.2969C413.297 65.5469 419.953 61.0938 429.047 61.0938C438.188 61.0938 444.844 65.5469 444.844 72.2969C444.844 76 442.875 78.9766 439.594 80.9219V91.75H448.5ZM429.047 65.2188C422.719 65.2188 418.406 67.8906 418.453 72.2969C418.406 76.6562 422.719 79.375 429.047 79.375C435.375 79.375 439.734 76.6562 439.734 72.2969C439.734 67.8906 435.375 65.2188 429.047 65.2188ZM423.891 91.75H434.297V82.8906C432.68 83.2656 430.922 83.4531 429.047 83.4531C427.219 83.4531 425.484 83.2656 423.891 82.9375V91.75ZM458.438 86.5938C458.484 80.6406 460.172 78.8125 463.125 76.9844C465.141 75.7188 466.641 74.125 466.641 71.7812C466.641 69.1562 464.625 67.4688 462.047 67.4688C459.703 67.4688 457.453 68.9688 457.312 72.1094H451.453C451.594 65.8281 456.328 62.5938 462.094 62.5938C468.422 62.5938 472.781 66.1094 472.781 71.6875C472.781 75.4844 470.859 77.9688 467.812 79.7969C465.094 81.4375 463.969 83.0781 463.922 86.5938V87.0156H458.438V86.5938ZM461.344 97.375C459.328 97.375 457.688 95.7344 457.688 93.7188C457.688 91.75 459.328 90.1094 461.344 90.1094C463.266 90.1094 464.953 91.75 464.953 93.7188C464.953 95.7344 463.266 97.375 461.344 97.375Z" fill="#F1F3F7"/>
<g clip-path="url(#clip0_1432_8)">
<path d="M500 69.9316H572V111.725C572 113.528 570.516 114.994 568.692 114.994H503.308C501.484 114.994 500 113.528 500 111.725V69.9316Z" fill="#F1F1F1"/>
<path d="M571.994 69.8728C571.689 69.8847 571.384 69.8965 571.085 69.8965C547.759 69.8965 524.433 69.8965 501.107 69.8965C500.778 69.8965 500.455 69.9142 500.126 69.926C500.078 69.926 500.036 69.9024 500 69.8669V53.0586C500.778 51.1431 501.526 50.6524 503.667 50.6524C507.783 50.6524 511.899 50.6524 516.015 50.6465C516.015 52.9818 516.015 55.323 516.015 57.6583C515.16 58.7994 515.291 60.2537 516.338 61.2056C517.361 62.1338 518.941 62.1338 519.97 61.1997C521.011 60.2537 521.136 58.7639 520.275 57.6524C520.275 55.3171 520.275 52.9818 520.275 50.6465C530.756 50.6465 541.238 50.6465 551.719 50.6465C551.719 52.9818 551.719 55.3171 551.719 57.6524C550.852 58.7639 550.977 60.2419 552.024 61.1997C553.047 62.1338 554.627 62.1397 555.656 61.2115C556.697 60.2715 556.834 58.7994 555.979 57.6642C555.979 55.323 555.979 52.9877 555.979 50.6465C560.262 50.6465 564.54 50.6465 568.823 50.6583C570.684 50.6642 571.976 51.8762 571.982 53.644C571.994 59.0536 571.982 64.4632 571.988 69.8788L571.994 69.8728Z" fill="#FE7058"/>
<path d="M516.01 50.6461C516.022 49.6529 516.082 48.6537 516.028 47.6605C515.962 46.413 516.405 45.5144 517.577 45H518.702C519.88 45.4907 520.335 46.3716 520.263 47.6132C520.204 48.6182 520.263 49.6292 520.275 50.6402C520.275 52.9755 520.275 55.3108 520.275 57.6461C520.269 57.8057 520.257 57.9654 520.257 58.1309C520.245 59.3961 519.444 60.2356 518.211 60.2711C517.057 60.3066 516.153 59.4671 516.058 58.2728C516.04 58.0659 516.034 57.859 516.022 57.652C516.022 55.3167 516.022 52.9755 516.022 50.6402L516.01 50.6461Z" fill="#415A6B"/>
<path d="M554.418 45C555.614 45.5144 556.039 46.4367 555.967 47.69C555.913 48.6715 555.973 49.6588 555.985 50.6402C555.985 52.9814 555.985 55.3167 555.985 57.6579C555.949 57.9772 555.943 58.3024 555.871 58.6157C555.536 60.0701 553.969 60.7264 552.707 59.9459C551.833 59.4079 551.726 58.5507 551.726 57.6461C551.726 55.3108 551.726 52.9755 551.726 50.6402C551.732 49.6292 551.791 48.6182 551.738 47.6132C551.672 46.3716 552.114 45.4848 553.299 45H554.424H554.418Z" fill="#415A6B"/>
<path d="M560.747 84.1854C558.946 84.1854 557.139 84.1736 555.339 84.1972C554.848 84.2031 554.692 84.0494 554.698 83.5646C554.716 80.9278 554.716 78.2851 554.698 75.6482C554.698 75.1575 554.854 75.0156 555.345 75.0156C558.952 75.0334 562.559 75.0334 566.167 75.0156C566.658 75.0156 566.813 75.1634 566.807 75.6482C566.789 78.2851 566.789 80.9278 566.807 83.5646C566.807 84.0553 566.652 84.2031 566.161 84.1972C564.36 84.1736 562.553 84.1854 560.753 84.1854H560.747Z" fill="#CCD5DF"/>
<path d="M527.771 88.3949C529.548 88.3949 531.331 88.4067 533.108 88.3831C533.58 88.3772 533.76 88.4954 533.754 88.9979C533.73 91.6348 533.736 94.2716 533.754 96.9084C533.754 97.3577 533.628 97.5114 533.162 97.5055C529.554 97.4878 525.953 97.4878 522.345 97.5055C521.861 97.5055 521.759 97.3223 521.765 96.8907C521.783 94.2775 521.783 91.6584 521.765 89.0452C521.765 88.5309 521.908 88.3653 522.435 88.3712C524.212 88.4008 525.995 88.3831 527.771 88.3831V88.3949Z" fill="#FED05D"/>
<path d="M511.26 88.4964C513.036 88.4964 514.819 88.5083 516.596 88.4846C517.087 88.4787 517.308 88.5733 517.302 89.1291C517.278 91.6949 517.284 94.2667 517.302 96.8326C517.302 97.3292 517.146 97.5361 516.614 97.5361C513.03 97.5243 509.447 97.5184 505.869 97.5361C505.325 97.5361 505.199 97.2997 505.205 96.8149C505.217 94.249 505.223 91.6772 505.205 89.1113C505.205 88.6147 505.379 88.4787 505.857 88.4846C507.658 88.5083 509.465 88.4905 511.266 88.4905L511.26 88.4964Z" fill="#CCD5DF"/>
<path d="M560.753 88.4964C562.529 88.4964 564.312 88.5082 566.089 88.4905C566.58 88.4846 566.801 88.5792 566.795 89.129C566.771 91.6949 566.777 94.2667 566.795 96.8325C566.795 97.3292 566.639 97.5361 566.113 97.5361C562.529 97.5243 558.946 97.5184 555.368 97.5361C554.824 97.5361 554.698 97.2996 554.698 96.8207C554.71 94.2548 554.716 91.6831 554.698 89.1172C554.698 88.6206 554.872 88.4846 555.35 88.4905C557.151 88.5141 558.958 88.4964 560.759 88.4964H560.753Z" fill="#CCD5DF"/>
<path d="M511.289 101.975C513.066 101.975 514.848 101.993 516.625 101.963C517.152 101.957 517.307 102.123 517.301 102.637C517.277 105.185 517.277 107.727 517.301 110.276C517.301 110.873 517.074 111.02 516.511 111.02C513 111.003 509.488 111.003 505.976 111.02C505.408 111.02 505.187 110.855 505.193 110.27C505.216 107.722 505.216 105.179 505.193 102.631C505.193 102.105 505.354 101.957 505.875 101.963C507.675 101.993 509.482 101.975 511.283 101.975H511.289Z" fill="#CCD5DF"/>
<path d="M527.789 84.1863C526.012 84.1863 524.229 84.1686 522.452 84.1982C521.914 84.2041 521.776 84.0267 521.782 83.5183C521.806 80.9524 521.806 78.3865 521.782 75.8206C521.782 75.3063 521.926 75.1407 522.458 75.1466C526.012 75.1644 529.572 75.1644 533.125 75.1466C533.628 75.1466 533.759 75.3181 533.753 75.7911C533.736 78.3806 533.736 80.9701 533.753 83.5596C533.753 84.0385 533.616 84.2041 533.119 84.1982C531.343 84.1745 529.566 84.1863 527.783 84.1863H527.789Z" fill="#CCD5DF"/>
<path d="M544.295 75.1526C546.047 75.1526 547.806 75.1644 549.559 75.1467C550.038 75.1408 550.217 75.2767 550.211 75.7734C550.193 78.3629 550.193 80.9524 550.211 83.542C550.211 83.9972 550.11 84.2041 549.595 84.1982C546.018 84.1805 542.434 84.1805 538.856 84.1982C538.408 84.1982 538.24 84.074 538.24 83.607C538.258 80.9938 538.258 78.3806 538.24 75.7675C538.24 75.2649 538.42 75.1408 538.892 75.1467C540.693 75.1703 542.494 75.1526 544.295 75.1526Z" fill="#CCD5DF"/>
<path d="M544.223 88.4963C546 88.4963 547.783 88.5082 549.559 88.4904C550.032 88.4904 550.217 88.6087 550.217 89.1112C550.193 91.7244 550.199 94.3375 550.217 96.9507C550.217 97.4119 550.05 97.5419 549.601 97.5419C546.024 97.5301 542.44 97.5242 538.863 97.5419C538.342 97.5419 538.24 97.3409 538.246 96.8857C538.264 94.2962 538.264 91.7066 538.246 89.1171C538.246 88.6205 538.414 88.4845 538.892 88.4904C540.669 88.5141 542.446 88.5022 544.229 88.5022L544.223 88.4963Z" fill="#CCD5DF"/>
<path d="M527.819 101.975C529.572 101.975 531.33 101.993 533.083 101.963C533.61 101.957 533.765 102.117 533.759 102.631C533.735 105.197 533.735 107.763 533.759 110.329C533.759 110.831 533.64 111.015 533.095 111.015C529.542 110.991 525.982 110.997 522.428 111.015C521.938 111.015 521.782 110.867 521.788 110.382C521.806 107.792 521.812 105.203 521.788 102.613C521.788 102.07 521.992 101.957 522.488 101.963C524.265 101.987 526.042 101.975 527.825 101.975H527.819Z" fill="#CCD5DF"/>
<path d="M544.229 111.009C542.452 111.009 540.669 110.997 538.892 111.014C538.42 111.014 538.234 110.896 538.24 110.394C538.264 107.78 538.258 105.167 538.24 102.554C538.24 102.093 538.402 101.963 538.857 101.963C542.434 101.975 546.018 101.981 549.595 101.963C550.116 101.963 550.217 102.164 550.211 102.619C550.194 105.209 550.194 107.798 550.211 110.388C550.211 110.884 550.038 111.02 549.559 111.014C547.783 110.991 546.006 111.009 544.223 111.009H544.229Z" fill="#CCD5DF"/>
</g>
<defs>
<clipPath id="clip0_1432_8">
<rect width="72" height="70" fill="white" transform="translate(500 45)"/>
</clipPath>
</defs>
</svg>
