<svg width="103" height="100" viewBox="0 0 103 100" fill="none" xmlns="http://www.w3.org/2000/svg">
<g clip-path="url(#clip0_807_234)">
<path d="M0 35.6172H103V95.3216C103 97.8976 100.878 99.9922 98.2672 99.9922H4.73278C2.12248 99.9922 0 97.8976 0 95.3216V35.6172Z" fill="#F1F1F1"/>
<path d="M102.991 35.5326C102.555 35.5495 102.118 35.5664 101.691 35.5664C68.3215 35.5664 34.9524 35.5664 1.5833 35.5664C1.11259 35.5664 0.650436 35.5917 0.179726 35.6086C0.111259 35.6086 0.0513502 35.5749 0 35.5242V11.5124C1.11259 8.77587 2.18238 8.07485 5.24628 8.07485C11.1344 8.07485 17.0226 8.07485 22.9108 8.06641C22.9108 11.4026 22.9108 14.7471 22.9108 18.0833C21.6869 19.7134 21.8752 21.7911 23.3729 23.1509C24.8364 24.4769 27.0958 24.4769 28.5678 23.1424C30.057 21.7911 30.2367 19.6627 29.0043 18.0749C29.0043 14.7387 29.0043 11.4026 29.0043 8.06641C43.9986 8.06641 58.9929 8.06641 73.9871 8.06641C73.9871 11.4026 73.9871 14.7387 73.9871 18.0749C72.7462 19.6627 72.9259 21.7742 74.4236 23.1424C75.8871 24.4769 78.1465 24.4853 79.6185 23.1593C81.1077 21.8164 81.3045 19.7134 80.0807 18.0917C80.0807 14.7471 80.0807 11.411 80.0807 8.06641C86.2085 8.06641 92.3277 8.06641 98.4555 8.0833C101.117 8.09174 102.966 9.82316 102.974 12.3485C102.991 20.0765 102.974 27.8046 102.983 35.5411L102.991 35.5326Z" fill="#FE7058"/>
<path d="M22.9023 8.06588C22.9195 6.64696 23.005 5.21959 22.928 3.80068C22.8339 2.01858 23.4672 0.734797 25.1446 0H26.7536C28.4396 0.701014 29.09 1.95946 28.9873 3.73311C28.9018 5.16892 28.9873 6.61318 29.0045 8.05743C29.0045 11.3936 29.0045 14.7297 29.0045 18.0659C28.9959 18.2939 28.9788 18.522 28.9788 18.7584C28.9617 20.5659 27.8148 21.7652 26.0518 21.8159C24.4001 21.8666 23.1077 20.6672 22.9708 18.9611C22.9451 18.6655 22.9366 18.3699 22.9195 18.0743C22.9195 14.7382 22.9195 11.3936 22.9195 8.05743L22.9023 8.06588Z" fill="#415A6B"/>
<path d="M77.8474 0C79.559 0.734797 80.1667 2.05237 80.064 3.84291C79.987 5.24493 80.0725 6.65541 80.0897 8.05743C80.0897 11.402 80.0897 14.7382 80.0897 18.0828C80.0383 18.5389 80.0297 19.0034 79.927 19.451C79.4478 21.5287 77.2055 22.4662 75.3997 21.3514C74.1501 20.5828 73.9961 19.3581 73.9961 18.0659C73.9961 14.7297 73.9961 11.3936 73.9961 8.05743C74.0047 6.61318 74.0902 5.16892 74.0132 3.73311C73.9191 1.95946 74.5524 0.692568 76.2469 0H77.8559L77.8474 0Z" fill="#415A6B"/>
<path d="M86.9018 55.9805C84.3257 55.9805 81.7411 55.9636 79.165 55.9974C78.4632 56.0059 78.2407 55.7863 78.2493 55.0937C78.2749 51.3268 78.2749 47.5515 78.2493 43.7846C78.2493 43.0836 78.4718 42.8809 79.1736 42.8809C84.3343 42.9062 89.495 42.9062 94.6557 42.8809C95.3574 42.8809 95.58 43.092 95.5714 43.7846C95.5457 47.5515 95.5457 51.3268 95.5714 55.0937C95.5714 55.7947 95.3489 56.0059 94.6471 55.9974C92.071 55.9636 89.4864 55.9805 86.9103 55.9805H86.9018Z" fill="#CCD5DF"/>
<path d="M39.7277 61.993C42.2696 61.993 44.82 62.0099 47.3618 61.9761C48.0379 61.9676 48.2946 62.1366 48.2861 62.8545C48.2519 66.6214 48.2604 70.3883 48.2861 74.1551C48.2861 74.797 48.1064 75.0166 47.4388 75.0082C42.2781 74.9828 37.126 74.9828 31.9653 75.0082C31.272 75.0082 31.1266 74.7464 31.1351 74.1298C31.1608 70.3967 31.1608 66.6551 31.1351 62.922C31.1351 62.1872 31.3405 61.9508 32.0937 61.9592C34.6355 62.0014 37.1859 61.9761 39.7277 61.9761V61.993Z" fill="#FED05D"/>
<path d="M16.1067 62.1364C18.6485 62.1364 21.1989 62.1533 23.7407 62.1195C24.4425 62.1111 24.7592 62.2462 24.7506 63.0401C24.7164 66.7056 24.725 70.3796 24.7506 74.0452C24.7506 74.7546 24.5281 75.0502 23.7664 75.0502C18.6399 75.0334 13.5135 75.0249 8.39558 75.0502C7.61677 75.0502 7.43704 74.7124 7.4456 74.0198C7.46272 70.3543 7.47127 66.6803 7.4456 63.0148C7.4456 62.3053 7.69379 62.1111 8.37846 62.1195C10.9545 62.1533 13.5392 62.1279 16.1152 62.1279L16.1067 62.1364Z" fill="#CCD5DF"/>
<path d="M86.9101 62.1377C89.4519 62.1377 92.0023 62.1546 94.5442 62.1293C95.246 62.1208 95.5626 62.256 95.5541 63.0414C95.5198 66.707 95.5284 70.381 95.5541 74.0465C95.5541 74.756 95.3315 75.0516 94.5784 75.0516C89.4519 75.0347 84.3255 75.0262 79.2076 75.0516C78.4288 75.0516 78.249 74.7137 78.249 74.0296C78.2661 70.3641 78.2747 66.6901 78.249 63.0245C78.249 62.3151 78.4972 62.1208 79.1819 62.1293C81.758 62.1631 84.3426 62.1377 86.9187 62.1377H86.9101Z" fill="#CCD5DF"/>
<path d="M16.1499 81.3941C18.6917 81.3941 21.2421 81.4194 23.7839 81.3772C24.5371 81.3687 24.7596 81.6052 24.751 82.34C24.7168 85.9802 24.7168 89.612 24.751 93.2522C24.751 94.1052 24.4258 94.3164 23.6213 94.3164C18.5976 94.291 13.5738 94.291 8.55003 94.3164C7.73698 94.3164 7.42032 94.0799 7.42888 93.2438C7.46311 89.6035 7.46311 85.9718 7.42888 82.3316C7.42888 81.5799 7.65995 81.3687 8.40453 81.3772C10.9806 81.4194 13.5652 81.3941 16.1413 81.3941H16.1499Z" fill="#CCD5DF"/>
<path d="M39.754 55.9805C37.2122 55.9805 34.6618 55.9551 32.1199 55.9974C31.3497 56.0058 31.1528 55.7524 31.1614 55.0261C31.1956 51.3605 31.1956 47.695 31.1614 44.0295C31.1614 43.2947 31.3668 43.0582 32.1285 43.0666C37.2122 43.092 42.3044 43.092 47.3881 43.0666C48.107 43.0666 48.2953 43.3116 48.2867 43.9872C48.261 47.6866 48.261 51.3859 48.2867 55.0852C48.2867 55.7693 48.0899 56.0058 47.3795 55.9974C44.8377 55.9636 42.2958 55.9805 39.7454 55.9805H39.754Z" fill="#CCD5DF"/>
<path d="M63.3662 43.0751C65.8738 43.0751 68.3899 43.092 70.8975 43.0667C71.5822 43.0582 71.8389 43.2525 71.8304 43.962C71.8047 47.6613 71.8047 51.3606 71.8304 55.0599C71.8304 55.7103 71.6849 56.0059 70.9489 55.9974C65.831 55.9721 60.7045 55.9721 55.5866 55.9974C54.9447 55.9974 54.7051 55.8201 54.7051 55.1528C54.7308 51.4197 54.7308 47.6866 54.7051 43.9535C54.7051 43.2356 54.9618 43.0582 55.6379 43.0667C58.214 43.1005 60.7901 43.0751 63.3662 43.0751Z" fill="#CCD5DF"/>
<path d="M63.263 62.1376C65.8049 62.1376 68.3553 62.1545 70.8971 62.1292C71.5732 62.1292 71.8385 62.2981 71.8385 63.016C71.8043 66.7491 71.8129 70.4822 71.8385 74.2153C71.8385 74.8741 71.5989 75.0599 70.957 75.0599C65.8391 75.043 60.7127 75.0346 55.5947 75.0599C54.8502 75.0599 54.7047 74.7728 54.7132 74.1224C54.7389 70.4231 54.7389 66.7238 54.7132 63.0244C54.7132 62.315 54.9529 62.1207 55.6375 62.1292C58.1794 62.163 60.7212 62.1461 63.2716 62.1461L63.263 62.1376Z" fill="#CCD5DF"/>
<path d="M39.796 81.3942C42.3036 81.3942 44.8198 81.4195 47.3274 81.3773C48.0805 81.3688 48.303 81.5969 48.2945 82.3317C48.2603 85.9972 48.2603 89.6627 48.2945 93.3283C48.2945 94.0462 48.1233 94.308 47.3445 94.308C42.2608 94.2742 37.1686 94.2827 32.0849 94.308C31.3831 94.308 31.1606 94.0969 31.1692 93.4043C31.1949 89.705 31.2034 86.0056 31.1692 82.3063C31.1692 81.5293 31.4602 81.3688 32.1705 81.3773C34.7123 81.411 37.2542 81.3942 39.8046 81.3942H39.796Z" fill="#CCD5DF"/>
<path d="M63.2722 94.2993C60.7304 94.2993 58.18 94.2824 55.6381 94.3077C54.962 94.3077 54.6967 94.1388 54.7053 93.4209C54.7395 89.6878 54.731 85.9547 54.7053 82.2215C54.7053 81.5628 54.9364 81.377 55.5868 81.377C60.7047 81.3938 65.8312 81.4023 70.9491 81.377C71.6936 81.377 71.8391 81.6641 71.8306 82.3145C71.8049 86.0138 71.8049 89.7131 71.8306 93.4124C71.8306 94.1219 71.5824 94.3161 70.8977 94.3077C68.3559 94.2739 65.814 94.2993 63.2636 94.2993H63.2722Z" fill="#CCD5DF"/>
</g>
<defs>
<clipPath id="clip0_807_234">
<rect width="103" height="100" fill="white"/>
</clipPath>
</defs>
</svg>
