<svg width="26" height="26" viewBox="0 0 26 26" fill="none" xmlns="http://www.w3.org/2000/svg">
<mask id="mask0_1381_22" style="mask-type:alpha" maskUnits="userSpaceOnUse" x="0" y="0" width="26" height="26">
<rect width="26" height="26" fill="#939393"/>
</mask>
<g mask="url(#mask0_1381_22)">
<path d="M13 22.75C12.6931 22.75 12.4358 22.6462 12.2281 22.4385C12.0205 22.2309 11.9167 21.9736 11.9167 21.6667V14.1104C10.7611 14.1104 9.65069 13.8892 8.58542 13.4469C7.52014 13.0045 6.58125 12.3771 5.76875 11.5646C4.95625 10.7521 4.33333 9.81319 3.9 8.74792C3.46667 7.68264 3.25 6.57222 3.25 5.41667V4.33333C3.25 4.02639 3.35382 3.7691 3.56146 3.56146C3.7691 3.35382 4.02639 3.25 4.33333 3.25H5.41667C6.55417 3.25 7.65556 3.47118 8.72083 3.91354C9.78611 4.3559 10.725 4.98333 11.5375 5.79583C12.0972 6.35556 12.5622 6.96944 12.9323 7.6375C13.3024 8.30556 13.5868 9.01875 13.7854 9.77708C13.8757 9.65069 13.975 9.52882 14.0833 9.41146C14.1917 9.2941 14.309 9.17222 14.4354 9.04583C15.2479 8.23333 16.1868 7.6059 17.2521 7.16354C18.3174 6.72118 19.4278 6.5 20.5833 6.5H21.6667C21.9736 6.5 22.2309 6.60382 22.4385 6.81146C22.6462 7.0191 22.75 7.27639 22.75 7.58333V8.66667C22.75 9.82222 22.5288 10.9326 22.0865 11.9979C21.6441 13.0632 21.0167 14.0021 20.2042 14.8146C19.3917 15.6271 18.4573 16.25 17.401 16.6833C16.3448 17.1167 15.2389 17.3333 14.0833 17.3333V21.6667C14.0833 21.9736 13.9795 22.2309 13.7719 22.4385C13.5642 22.6462 13.3069 22.75 13 22.75ZM11.9167 11.9167C11.9167 11.05 11.7497 10.224 11.4156 9.43854C11.0816 8.65313 10.6076 7.95347 9.99375 7.33958C9.37986 6.72569 8.68021 6.25174 7.89479 5.91771C7.10938 5.58368 6.28333 5.41667 5.41667 5.41667C5.41667 6.28333 5.57917 7.11389 5.90417 7.90833C6.22917 8.70278 6.69861 9.40694 7.3125 10.0208C7.92639 10.6347 8.63056 11.1042 9.425 11.4292C10.2194 11.7542 11.05 11.9167 11.9167 11.9167ZM14.0833 15.1667C14.95 15.1667 15.776 15.0042 16.5615 14.6792C17.3469 14.3542 18.0465 13.8847 18.6604 13.2708C19.2743 12.6569 19.7483 11.9528 20.0823 11.1583C20.4163 10.3639 20.5833 9.53333 20.5833 8.66667C19.7167 8.66667 18.8861 8.83368 18.0917 9.16771C17.2972 9.50174 16.5931 9.97569 15.9792 10.5896C15.3653 11.2035 14.8958 11.9031 14.5708 12.6885C14.2458 13.474 14.0833 14.3 14.0833 15.1667Z" fill="#1A1A1A"/>
</g>
</svg>
