<svg width="82" height="82" viewBox="0 0 82 82" fill="none" xmlns="http://www.w3.org/2000/svg">
<mask id="mask0_1381_7" style="mask-type:alpha" maskUnits="userSpaceOnUse" x="0" y="0" width="82" height="82">
<rect width="82" height="82" fill="#939393"/>
</mask>
<g mask="url(#mask0_1381_7)">
<path d="M41 71.75C40.0319 71.75 39.2205 71.4226 38.5656 70.7677C37.9108 70.1128 37.5833 69.3014 37.5833 68.3333V44.5021C33.9389 44.5021 30.4368 43.8045 27.0771 42.4094C23.7174 41.0142 20.7563 39.0354 18.1938 36.4729C15.6313 33.9104 13.6667 30.9493 12.3 27.5896C10.9333 24.2299 10.25 20.7278 10.25 17.0833V13.6667C10.25 12.6986 10.5774 11.8872 11.2323 11.2323C11.8872 10.5774 12.6986 10.25 13.6667 10.25H17.0833C20.6708 10.25 24.1444 10.9476 27.5042 12.3427C30.8639 13.7378 33.825 15.7167 36.3875 18.2792C38.1528 20.0444 39.6191 21.9806 40.7865 24.0875C41.9538 26.1944 42.8507 28.4438 43.4771 30.8354C43.7618 30.4368 44.075 30.0524 44.4167 29.6823C44.7583 29.3122 45.1285 28.9278 45.5271 28.5292C48.0896 25.9667 51.0507 23.9878 54.4104 22.5927C57.7701 21.1976 61.2722 20.5 64.9167 20.5H68.3333C69.3014 20.5 70.1128 20.8274 70.7677 21.4823C71.4226 22.1372 71.75 22.9486 71.75 23.9167V27.3333C71.75 30.9778 71.0524 34.4799 69.6573 37.8396C68.2622 41.1993 66.2833 44.1604 63.7208 46.7229C61.1583 49.2854 58.2115 51.25 54.8802 52.6167C51.549 53.9833 48.0611 54.6667 44.4167 54.6667V68.3333C44.4167 69.3014 44.0892 70.1128 43.4344 70.7677C42.7795 71.4226 41.9681 71.75 41 71.75ZM37.5833 37.5833C37.5833 34.85 37.0566 32.2448 36.0031 29.7677C34.9497 27.2906 33.4549 25.084 31.5188 23.1479C29.5826 21.2118 27.376 19.717 24.899 18.6635C22.4219 17.6101 19.8167 17.0833 17.0833 17.0833C17.0833 19.8167 17.5958 22.4361 18.6208 24.9417C19.6458 27.4472 21.1264 29.6681 23.0625 31.6042C24.9986 33.5403 27.2194 35.0208 29.725 36.0458C32.2306 37.0708 34.85 37.5833 37.5833 37.5833ZM44.4167 47.8333C47.15 47.8333 49.7552 47.3208 52.2323 46.2958C54.7094 45.2708 56.916 43.7903 58.8521 41.8542C60.7882 39.9181 62.283 37.6972 63.3365 35.1917C64.3899 32.6861 64.9167 30.0667 64.9167 27.3333C62.1833 27.3333 59.5639 27.8601 57.0583 28.9135C54.5528 29.967 52.3319 31.4618 50.3958 33.3979C48.4597 35.334 46.9792 37.5406 45.9542 40.0177C44.9292 42.4948 44.4167 45.1 44.4167 47.8333Z" fill="#939393"/>
</g>
</svg>
