<svg width="82" height="82" viewBox="0 0 82 82" fill="none" xmlns="http://www.w3.org/2000/svg">
<mask id="mask0_1381_19" style="mask-type:alpha" maskUnits="userSpaceOnUse" x="0" y="0" width="82" height="82">
<rect width="82" height="82" fill="#939393"/>
</mask>
<g mask="url(#mask0_1381_19)">
<path d="M37.5827 68.334V54.6673H30.7493C26.023 54.6673 21.9941 53.0017 18.6629 49.6704C15.3316 46.3392 13.666 42.3104 13.666 37.584C13.666 34.1673 14.6056 31.0211 16.4848 28.1454C18.3639 25.2697 20.898 23.177 24.0868 21.8673C24.5993 17.5965 26.4643 14.0232 29.6816 11.1475C32.899 8.27183 36.6716 6.83398 40.9993 6.83398C45.3271 6.83398 49.0997 8.27183 52.3171 11.1475C55.5344 14.0232 57.3993 17.5965 57.9118 21.8673C61.1007 23.177 63.6348 25.2697 65.5139 28.1454C67.3931 31.0211 68.3327 34.1673 68.3327 37.584C68.3327 42.3104 66.6671 46.3392 63.3358 49.6704C60.0046 53.0017 55.9757 54.6673 51.2493 54.6673H44.416V68.334H61.4994C62.4674 68.334 63.2789 68.6614 63.9337 69.3163C64.5886 69.9711 64.916 70.7826 64.916 71.7507C64.916 72.7187 64.5886 73.5302 63.9337 74.185C63.2789 74.8399 62.4674 75.1673 61.4994 75.1673H20.4993C19.5313 75.1673 18.7198 74.8399 18.065 74.185C17.4101 73.5302 17.0827 72.7187 17.0827 71.7507C17.0827 70.7826 17.4101 69.9711 18.065 69.3163C18.7198 68.6614 19.5313 68.334 20.4993 68.334H37.5827ZM30.7493 47.834H51.2493C54.0966 47.834 56.5167 46.8375 58.5098 44.8444C60.5028 42.8513 61.4994 40.4312 61.4994 37.584C61.4994 35.534 60.9157 33.6548 59.7483 31.9465C58.5809 30.2382 57.0577 28.9854 55.1785 28.1882L51.591 26.6507L51.0785 22.7215C50.7368 20.159 49.6122 18.0093 47.7046 16.2725C45.7969 14.5357 43.5618 13.6673 40.9993 13.6673C38.4368 13.6673 36.2018 14.5357 34.2941 16.2725C32.3865 18.0093 31.2619 20.159 30.9202 22.7215L30.4077 26.6507L26.8202 28.1882C24.941 28.9854 23.4178 30.2382 22.2504 31.9465C21.083 33.6548 20.4993 35.534 20.4993 37.584C20.4993 40.4312 21.4959 42.8513 23.4889 44.8444C25.482 46.8375 27.9021 47.834 30.7493 47.834Z" fill="#939393"/>
</g>
</svg>
