<svg width="26" height="26" viewBox="0 0 26 26" fill="none" xmlns="http://www.w3.org/2000/svg">
<mask id="mask0_1381_31" style="mask-type:alpha" maskUnits="userSpaceOnUse" x="0" y="0" width="26" height="26">
<rect width="26" height="26" fill="#939393"/>
</mask>
<g mask="url(#mask0_1381_31)">
<path d="M11.9173 21.666V17.3327H9.75065C8.25204 17.3327 6.97461 16.8046 5.91836 15.7483C4.86211 14.6921 4.33398 13.4146 4.33398 11.916C4.33398 10.8327 4.6319 9.83511 5.22773 8.92331C5.82357 8.0115 6.62704 7.34796 7.63815 6.93268C7.80065 5.57852 8.39197 4.44553 9.41211 3.53372C10.4322 2.62192 11.6284 2.16602 13.0007 2.16602C14.3729 2.16602 15.5691 2.62192 16.5892 3.53372C17.6093 4.44553 18.2007 5.57852 18.3632 6.93268C19.3743 7.34796 20.1777 8.0115 20.7736 8.92331C21.3694 9.83511 21.6673 10.8327 21.6673 11.916C21.6673 13.4146 21.1392 14.6921 20.0829 15.7483C19.0267 16.8046 17.7493 17.3327 16.2507 17.3327H14.084V21.666H19.5007C19.8076 21.666 20.0649 21.7698 20.2725 21.9775C20.4802 22.1851 20.584 22.4424 20.584 22.7493C20.584 23.0563 20.4802 23.3136 20.2725 23.5212C20.0649 23.7289 19.8076 23.8327 19.5007 23.8327H6.50065C6.19371 23.8327 5.93642 23.7289 5.72878 23.5212C5.52114 23.3136 5.41732 23.0563 5.41732 22.7493C5.41732 22.4424 5.52114 22.1851 5.72878 21.9775C5.93642 21.7698 6.19371 21.666 6.50065 21.666H11.9173ZM9.75065 15.166H16.2507C17.1534 15.166 17.9208 14.85 18.5527 14.2181C19.1847 13.5862 19.5007 12.8188 19.5007 11.916C19.5007 11.266 19.3156 10.6702 18.9454 10.1285C18.5753 9.58685 18.0923 9.18963 17.4965 8.93685L16.359 8.44935L16.1965 7.20352C16.0882 6.39102 15.7316 5.70942 15.1267 5.15872C14.5218 4.60803 13.8132 4.33268 13.0007 4.33268C12.1882 4.33268 11.4795 4.60803 10.8746 5.15872C10.2697 5.70942 9.91315 6.39102 9.80482 7.20352L9.64232 8.44935L8.50482 8.93685C7.90898 9.18963 7.426 9.58685 7.05586 10.1285C6.68572 10.6702 6.50065 11.266 6.50065 11.916C6.50065 12.8188 6.81662 13.5862 7.44857 14.2181C8.08051 14.85 8.84787 15.166 9.75065 15.166Z" fill="#1A1A1A"/>
</g>
</svg>
