<svg width="82" height="82" viewBox="0 0 82 82" fill="none" xmlns="http://www.w3.org/2000/svg">
<mask id="mask0_1381_10" style="mask-type:alpha" maskUnits="userSpaceOnUse" x="0" y="0" width="82" height="82">
<rect width="82" height="82" fill="#939393"/>
</mask>
<g mask="url(#mask0_1381_10)">
<path d="M38.2673 74.7419C34.2812 74.0016 30.409 72.7204 26.6507 70.8982C22.8923 69.076 19.5468 66.5419 16.6142 63.2961C13.6816 60.0503 11.3184 56.0357 9.52461 51.2523C7.73086 46.469 6.83398 40.7746 6.83398 34.169V33.4857C6.83398 32.6885 7.09023 32.0336 7.60273 31.5211C8.11523 31.0086 8.7701 30.7523 9.56732 30.7523H10.2507C13.1548 30.7523 16.1444 31.1225 19.2194 31.8628C22.2944 32.603 25.1701 33.7135 27.8465 35.194C28.4729 30.9801 29.7257 26.6523 31.6048 22.2107C33.484 17.769 35.7333 13.7544 38.3527 10.1669C39.0361 9.19887 39.9187 8.71484 41.0007 8.71484C42.0826 8.71484 42.9652 9.19887 43.6486 10.1669C46.268 13.7544 48.5173 17.769 50.3965 22.2107C52.2757 26.6523 53.5284 30.9801 54.1548 35.194C56.8312 33.7135 59.7069 32.603 62.7819 31.8628C65.8569 31.1225 68.8465 30.7523 71.7507 30.7523H72.0923C72.9465 30.7523 73.6725 31.0513 74.2704 31.6492C74.8684 32.2471 75.1673 32.9732 75.1673 33.8273V34.169C75.1673 40.7746 74.2704 46.469 72.4767 51.2523C70.6829 56.0357 68.3198 60.0503 65.3871 63.2961C62.4545 66.5419 59.109 69.076 55.3507 70.8982C51.5923 72.7204 47.7201 74.0016 43.734 74.7419C42.9937 74.8558 42.0826 74.9128 41.0007 74.9128C39.9187 74.9128 39.0076 74.8558 38.2673 74.7419ZM40.8298 68.1648C40.2034 58.769 37.3704 51.6367 32.3309 46.768C27.2913 41.8992 21.127 38.8954 13.8382 37.7565C13.7243 37.7565 13.7243 37.7565 13.8382 37.7565C14.4645 47.3801 17.3829 54.6121 22.5934 59.4523C27.8038 64.2926 33.8826 67.1968 40.8298 68.1648C40.9437 68.2218 40.9437 68.236 40.8298 68.2076C40.7159 68.1791 40.7159 68.1648 40.8298 68.1648ZM34.3382 39.1232C35.477 40.0912 36.6729 41.2444 37.9257 42.5826C39.1784 43.9207 40.2034 45.2162 41.0007 46.469C41.8548 45.2162 42.8941 43.9207 44.1184 42.5826C45.3427 41.2444 46.5243 40.0912 47.6632 39.1232C47.5493 35.8773 46.9086 32.4891 45.7413 28.9586C44.5739 25.428 42.9937 21.9829 41.0007 18.6232C39.0076 21.9829 37.4274 25.428 36.26 28.9586C35.0927 32.4891 34.452 35.8773 34.3382 39.1232ZM44.759 53.644C45.4423 55.4662 46.026 57.4593 46.51 59.6232C46.9941 61.7871 47.3784 64.1218 47.6632 66.6273C49.7132 65.944 51.877 64.919 54.1548 63.5523C56.4326 62.1857 58.5395 60.3635 60.4757 58.0857C62.4118 55.8079 64.0916 53.0034 65.5152 49.6721C66.9389 46.3409 67.8215 42.369 68.1632 37.7565C68.1632 37.6426 68.1632 37.6426 68.1632 37.7565C62.8104 38.5537 58.1125 40.3332 54.0694 43.0951C50.0263 45.8569 46.9229 49.3732 44.759 53.644Z" fill="#939393"/>
</g>
</svg>
