<svg width="26" height="26" viewBox="0 0 26 26" fill="none" xmlns="http://www.w3.org/2000/svg">
<mask id="mask0_1381_25" style="mask-type:alpha" maskUnits="userSpaceOnUse" x="0" y="0" width="26" height="26">
<rect width="26" height="26" fill="#939393"/>
</mask>
<g mask="url(#mask0_1381_25)">
<path d="M12.1327 23.6991C10.8688 23.4644 9.64102 23.0581 8.44935 22.4803C7.25768 21.9026 6.19692 21.0991 5.26706 20.0699C4.3372 19.0408 3.58789 17.7678 3.01914 16.2512C2.45039 14.7345 2.16602 12.9289 2.16602 10.8345V10.6178C2.16602 10.3651 2.24727 10.1574 2.40977 9.99492C2.57227 9.83242 2.7799 9.75117 3.03268 9.75117H3.24935C4.17018 9.75117 5.1181 9.86853 6.0931 10.1033C7.0681 10.338 7.9799 10.6901 8.82852 11.1595C9.02713 9.82339 9.42435 8.45117 10.0202 7.04284C10.616 5.6345 11.3292 4.36159 12.1598 3.22409C12.3764 2.91714 12.6563 2.76367 12.9993 2.76367C13.3424 2.76367 13.6223 2.91714 13.8389 3.22409C14.6695 4.36159 15.3827 5.6345 15.9785 7.04284C16.5743 8.45117 16.9716 9.82339 17.1702 11.1595C18.0188 10.6901 18.9306 10.338 19.9056 10.1033C20.8806 9.86853 21.8285 9.75117 22.7493 9.75117H22.8577C23.1285 9.75117 23.3587 9.84596 23.5483 10.0355C23.7379 10.2251 23.8327 10.4553 23.8327 10.7262V10.8345C23.8327 12.9289 23.5483 14.7345 22.9796 16.2512C22.4108 17.7678 21.6615 19.0408 20.7316 20.0699C19.8018 21.0991 18.741 21.9026 17.5493 22.4803C16.3577 23.0581 15.1299 23.4644 13.866 23.6991C13.6313 23.7352 13.3424 23.7533 12.9993 23.7533C12.6563 23.7533 12.3674 23.7352 12.1327 23.6991ZM12.9452 21.6137C12.7466 18.6345 11.8483 16.373 10.2504 14.8293C8.65247 13.2855 6.69796 12.3331 4.38685 11.972C4.35074 11.972 4.35074 11.972 4.38685 11.972C4.58546 15.0234 5.51081 17.3164 7.16289 18.8512C8.81497 20.3859 10.7424 21.3067 12.9452 21.6137C12.9813 21.6317 12.9813 21.6362 12.9452 21.6272C12.9091 21.6182 12.9091 21.6137 12.9452 21.6137ZM10.8868 12.4053C11.248 12.7123 11.6271 13.0779 12.0243 13.5022C12.4216 13.9265 12.7466 14.3373 12.9993 14.7345C13.2702 14.3373 13.5997 13.9265 13.9879 13.5022C14.3761 13.0779 14.7507 12.7123 15.1118 12.4053C15.0757 11.3762 14.8726 10.3019 14.5025 9.18242C14.1323 8.06298 13.6313 6.97062 12.9993 5.90534C12.3674 6.97062 11.8664 8.06298 11.4962 9.18242C11.1261 10.3019 10.923 11.3762 10.8868 12.4053ZM14.191 17.0095C14.4077 17.5873 14.5928 18.2192 14.7462 18.9053C14.8997 19.5914 15.0216 20.3317 15.1118 21.1262C15.7618 20.9095 16.448 20.5845 17.1702 20.1512C17.8924 19.7178 18.5605 19.1401 19.1743 18.4178C19.7882 17.6956 20.3209 16.8064 20.7723 15.7501C21.2237 14.6939 21.5035 13.4345 21.6119 11.972C21.6119 11.9359 21.6119 11.9359 21.6119 11.972C19.9146 12.2248 18.425 12.789 17.1431 13.6647C15.8612 14.5404 14.8771 15.6553 14.191 17.0095Z" fill="#1A1A1A"/>
</g>
</svg>
