<svg width="82" height="82" viewBox="0 0 82 82" fill="none" xmlns="http://www.w3.org/2000/svg">
<mask id="mask0_1381_13" style="mask-type:alpha" maskUnits="userSpaceOnUse" x="0" y="0" width="82" height="82">
<rect width="82" height="82" fill="#939393"/>
</mask>
<g mask="url(#mask0_1381_13)">
<path d="M36.3882 68.334C35.8757 66.8534 35.2208 65.4868 34.4236 64.234C33.6263 62.9812 32.6868 61.8138 31.6048 60.7319C30.5229 59.65 29.3555 58.6961 28.1027 57.8704C26.85 57.0447 25.4833 56.3757 24.0027 55.8632C24.1166 57.5145 24.5152 59.052 25.1986 60.4757C25.8819 61.8993 26.793 63.1805 27.9319 64.3194C29.0708 65.4583 30.352 66.3836 31.7757 67.0954C33.1993 67.8073 34.7368 68.2201 36.3882 68.334ZM45.6132 68.334C47.2645 68.1632 48.802 67.7361 50.2256 67.0527C51.6493 66.3694 52.9305 65.4583 54.0694 64.3194C55.2083 63.1805 56.1194 61.8993 56.8027 60.4757C57.4861 59.052 57.9131 57.5145 58.084 55.8632C56.6034 56.3757 55.2225 57.0305 53.9413 57.8277C52.66 58.625 51.4784 59.5645 50.3965 60.6465C49.3145 61.7284 48.375 62.91 47.5777 64.1913C46.7805 65.4725 46.1257 66.8534 45.6132 68.334ZM41.0006 37.584C44.759 37.584 47.9763 36.2458 50.6527 33.5694C53.3291 30.893 54.6673 27.6757 54.6673 23.9173V19.8173L48.6881 24.8569L41.0006 15.5465L33.3132 24.8569L27.334 19.8173V23.9173C27.334 27.6757 28.6722 30.893 31.3486 33.5694C34.025 36.2458 37.2423 37.584 41.0006 37.584ZM37.584 75.1673C31.8895 75.1673 27.0493 73.1743 23.0632 69.1882C19.077 65.202 17.084 60.3618 17.084 54.6673V47.834C21.127 47.777 24.9423 48.6027 28.5298 50.3111C32.1173 52.0194 35.1354 54.3257 37.584 57.2298V44.1611C32.6868 43.3638 28.6152 41.0718 25.3694 37.285C22.1236 33.4982 20.5007 29.0423 20.5007 23.9173V12.3007C20.5007 10.8201 21.1555 9.78086 22.4652 9.18294C23.775 8.58503 24.9993 8.7701 26.1382 9.73815L32.459 15.2048L38.3527 8.02982C39.0361 7.2326 39.9187 6.83398 41.0006 6.83398C42.0826 6.83398 42.9652 7.2326 43.6486 8.02982L49.5423 15.2048L55.8632 9.73815C57.002 8.7701 58.2263 8.58503 59.5361 9.18294C60.8458 9.78086 61.5006 10.8201 61.5006 12.3007V23.9173C61.5006 29.0423 59.8777 33.4982 56.6319 37.285C53.3861 41.0718 49.3145 43.3638 44.4173 44.1611V57.2298C46.8659 54.3257 49.884 52.0194 53.4715 50.3111C57.059 48.6027 60.8743 47.777 64.9173 47.834V54.6673C64.9173 60.3618 62.9243 65.202 58.9381 69.1882C54.952 73.1743 50.1118 75.1673 44.4173 75.1673H37.584Z" fill="#939393"/>
</g>
</svg>
