<svg width="26" height="26" viewBox="0 0 26 26" fill="none" xmlns="http://www.w3.org/2000/svg">
<mask id="mask0_1381_28" style="mask-type:alpha" maskUnits="userSpaceOnUse" x="0" y="0" width="26" height="26">
<rect width="26" height="26" fill="#939393"/>
</mask>
<g mask="url(#mask0_1381_28)">
<path d="M11.5368 21.666C11.3743 21.1966 11.1667 20.7632 10.9139 20.366C10.6612 19.9688 10.3632 19.5987 10.0202 19.2556C9.67713 18.9125 9.30699 18.6101 8.90977 18.3483C8.51254 18.0865 8.07921 17.8743 7.60977 17.7118C7.64588 18.2355 7.77227 18.723 7.98893 19.1743C8.2056 19.6257 8.49449 20.032 8.8556 20.3931C9.21671 20.7542 9.62296 21.0476 10.0743 21.2733C10.5257 21.499 11.0132 21.6299 11.5368 21.666ZM14.4618 21.666C14.9855 21.6118 15.473 21.4764 15.9243 21.2598C16.3757 21.0431 16.782 20.7542 17.1431 20.3931C17.5042 20.032 17.7931 19.6257 18.0098 19.1743C18.2264 18.723 18.3618 18.2355 18.416 17.7118C17.9466 17.8743 17.5087 18.082 17.1025 18.3348C16.6962 18.5875 16.3216 18.8855 15.9785 19.2285C15.6355 19.5716 15.3375 19.9462 15.0848 20.3525C14.832 20.7587 14.6243 21.1966 14.4618 21.666ZM12.9993 11.916C14.191 11.916 15.2112 11.4917 16.0598 10.6431C16.9084 9.79449 17.3327 8.77435 17.3327 7.58268V6.28268L15.4368 7.8806L12.9993 4.92852L10.5618 7.8806L8.66602 6.28268V7.58268C8.66602 8.77435 9.09032 9.79449 9.93893 10.6431C10.7875 11.4917 11.8077 11.916 12.9993 11.916ZM11.916 23.8327C10.1105 23.8327 8.57574 23.2007 7.31185 21.9368C6.04796 20.673 5.41602 19.1382 5.41602 17.3327V15.166C6.69796 15.148 7.90768 15.4098 9.04518 15.9514C10.1827 16.4931 11.1396 17.2243 11.916 18.1452V14.0014C10.3632 13.7487 9.07227 13.0219 8.0431 11.8212C7.01393 10.6205 6.49935 9.20768 6.49935 7.58268V3.89935C6.49935 3.4299 6.70699 3.10039 7.12227 2.91081C7.53754 2.72122 7.92574 2.7799 8.28685 3.08685L10.291 4.82018L12.1598 2.54518C12.3764 2.2924 12.6563 2.16602 12.9993 2.16602C13.3424 2.16602 13.6223 2.2924 13.8389 2.54518L15.7077 4.82018L17.7118 3.08685C18.073 2.7799 18.4612 2.72122 18.8764 2.91081C19.2917 3.10039 19.4993 3.4299 19.4993 3.89935V7.58268C19.4993 9.20768 18.9848 10.6205 17.9556 11.8212C16.9264 13.0219 15.6355 13.7487 14.0827 14.0014V18.1452C14.8591 17.2243 15.816 16.4931 16.9535 15.9514C18.091 15.4098 19.3007 15.148 20.5827 15.166V17.3327C20.5827 19.1382 19.9507 20.673 18.6868 21.9368C17.423 23.2007 15.8882 23.8327 14.0827 23.8327H11.916Z" fill="#1A1A1A"/>
</g>
</svg>
