<svg width="177" height="178" viewBox="0 0 177 178" fill="none" xmlns="http://www.w3.org/2000/svg">
<path d="M88.5 178C137.377 178 177 138.153 177 89C177 39.8467 137.377 0 88.5 0C39.6228 0 0 39.8467 0 89C0 138.153 39.6228 178 88.5 178Z" fill="#7E94FF"/>
<path d="M49.3132 77.9925C49.0042 74.2214 48.6953 70.4579 48.394 66.6868C48.309 65.661 48.2549 64.6353 48.1854 63.6096C48.17 63.3456 48.2626 63.0515 48 62.8478V61.0226C58.0811 61.0226 68.1699 61.0226 78.2511 61.0226C81.4956 61.0151 84.7401 61.0075 87.9845 61L87.9691 61.0453C87.9768 66.6491 87.9923 72.2529 88 77.8567C88 77.8944 87.9846 77.9397 87.9691 77.9774C75.1765 77.9774 62.3917 77.9774 49.5991 77.9698C49.5064 77.9698 49.4137 77.9849 49.321 78L49.3132 77.9925Z" fill="#FEDAA8"/>
<path d="M88.0079 136.992C88.0079 130.662 88.0079 124.331 88.0079 118C91.2363 118.031 94.4569 118.061 97.6854 118.092C98.4002 122.585 101.252 125.456 105.148 127.592C106.931 128.572 108.643 129.674 110.395 130.7C110.819 130.952 111.008 131.251 111 131.741C110.968 133.494 110.984 135.247 110.976 137H88L88.0079 136.992Z" fill="#C5D2FF"/>
<path d="M87.9925 136.992C87.9925 130.662 87.9925 124.331 87.9925 118C84.9044 118.031 81.8238 118.061 78.7357 118.092C78.052 122.585 75.3246 125.456 71.5978 127.592C69.8923 128.572 68.2543 129.674 66.5788 130.7C66.173 130.952 65.9927 131.251 66.0002 131.741C66.0303 133.494 66.0153 135.247 66.0228 137H88L87.9925 136.992Z" fill="#F1F3F7"/>
<path d="M88 78.1215C88.0155 78.0836 88.0233 78.0456 88.031 78C101.017 78 114.004 78 126.998 78C127.029 80.203 126.711 82.3833 126.579 84.5711C126.408 87.4655 126.136 90.3522 125.903 93.239C125.717 95.4876 125.523 97.7362 125.329 99.9848C113.01 99.9848 100.699 99.9924 88.3804 100C88.2562 100 88.132 99.9772 88.0078 99.962C88.0078 92.6844 88.0078 85.4068 88 78.1291V78.1215Z" fill="#FF3E40"/>
<path d="M126.651 78C113.78 78 100.909 78 88.0308 78C88.0231 72.341 88.0077 66.6819 88 61.0228C91.2851 61.0228 94.5701 61.0076 97.8552 61C107.541 61 117.227 61 126.905 61C128.036 61 128.067 61.0838 127.959 62.211C127.752 64.4579 127.605 66.7124 127.413 68.9592C127.159 71.9677 126.898 74.9763 126.644 77.9848L126.651 78Z" fill="#FEBCAC"/>
<path d="M88 100C88.1231 100.016 88.2463 100.039 88.3694 100.039C100.582 100.039 112.787 100.031 125 100.023C124.677 103.536 124.938 107.111 123.561 110.49C121.906 114.542 117.435 117.789 113.149 117.828C108.285 117.867 103.422 117.844 98.5659 117.859C98.2042 117.859 97.8195 117.742 97.4886 118C94.3257 117.969 91.1706 117.937 88.0077 117.906L88 117.828C88 111.914 88 105.992 88.0077 100.078V100H88Z" fill="#FEBCAC"/>
<path d="M97.8097 60.9771C94.5424 60.9771 91.275 60.9924 88.0076 61L88.023 60.9542C88.023 56.983 88.0077 53.0117 88 49.0481C89.0789 48.8801 90.1043 49.1856 91.1296 49.4453C92.9125 50.1861 94.4964 51.1789 95.7437 52.6986C97.7562 55.1501 98.3607 57.9147 97.8021 60.9847L97.8097 60.9771Z" fill="#FF3E40"/>
<path d="M87.9767 49.0227C87.9767 53.01 87.9922 56.9973 88 60.977C84.7364 60.9847 81.4728 60.9923 78.2091 61C77.1213 55.7781 80.4004 50.863 85.1871 49.4598C85.2959 49.4291 85.3891 49.3294 85.4979 49.2604C86.3216 49.13 87.1375 48.946 87.9767 49.015V49.0227Z" fill="#FE7A53"/>
<path d="M88.464 48.6174C87.6298 48.5536 86.8188 48.7237 86 48.8441C86.9501 45.1032 89.499 42.8856 93.5696 42.1133C94.8904 41.8653 94.9908 41.9433 94.9908 43.1831C94.9908 44.2105 94.9754 45.2307 94.9986 46.2581C95.014 46.754 94.9136 46.9878 94.2802 47.087C93.0675 47.2783 92.1175 47.9018 91.6231 49C90.5881 48.7591 89.5531 48.4757 88.464 48.6316V48.6174Z" fill="#8AFEFB"/>
<path d="M87.9924 78.0152C87.9924 85.3181 87.9924 92.6209 88 99.9238V100C87.5747 99.9924 87.1419 99.9695 86.7166 99.9695C75.0296 99.9695 63.3425 99.9619 51.6555 99.9543C51.3441 95.9217 51.0252 91.8815 50.7214 87.8489C50.4708 84.5787 50.2354 81.3084 50 78.0305C50.0911 78.0229 50.1823 78 50.2734 78C62.8489 78 75.4169 78 87.9924 78.0076V78.0152Z" fill="#FE7A53"/>
<path d="M51 100.008C62.8978 100.008 74.7957 100.016 86.6935 100.024C87.1264 100.024 87.5671 100.039 88 100.055C88 106.018 88 111.988 87.9923 117.951C79.5579 117.951 71.1158 118.093 62.6814 117.895C58.4603 117.801 55.252 115.466 53.0796 111.744C51.8581 109.646 51.4175 107.343 51.3479 104.921C51.3015 103.281 51.1237 101.64 51.0077 100L51 100.008Z" fill="#FEDAA8"/>
</svg>
