<svg width="171" height="172" viewBox="0 0 171 172" fill="none" xmlns="http://www.w3.org/2000/svg">
<path d="M85.5 171.5C132.72 171.5 171 133.22 171 86C171 38.7796 132.72 0.5 85.5 0.5C38.2797 0.5 0 38.7796 0 86C0 133.22 38.2797 171.5 85.5 171.5Z" fill="#7E94FF"/>
<path d="M112 105H108V135H112V105Z" fill="#CAE5EC"/>
<path d="M124 86C114.876 86 105.752 85.9924 96.6279 85.9847C96.0853 85.9847 95.5426 85.9466 95 85.9314C95.2868 83.8268 96.3333 81.8976 97.0853 79.8998C97.7364 78.1688 98.0775 76.415 98.0388 74.5926C97.9922 72.3965 98.5116 72 101.209 72C107.039 72 112.868 72 118.698 72C120.101 72 121.078 72.6329 120.961 73.7385C120.589 77.3834 122.233 80.6623 123.442 84.0251C123.674 84.6656 123.814 85.329 124 85.9847V86Z" fill="#F1F3F7"/>
<path d="M84 72H46V128H84V72Z" fill="#FE7A53"/>
<path d="M125 93.3074C124.566 93.5439 124.724 94.0011 124.669 94.348C123.809 99.6532 120.992 103.453 116.053 105.652C115.911 105.715 115.793 105.81 115.659 105.889C114.255 106.291 112.882 106.827 111.414 107C111.312 106.511 110.862 106.637 110.562 106.551C103.162 104.47 98.8464 98.5811 99.0042 90.8243C99.0357 89.232 99.3355 87.6633 99.304 86.0789C99.375 86.0552 99.4539 86.0236 99.5249 86C99.9904 86.0158 100.456 86.0552 100.913 86.0552C108.7 86.0631 116.495 86.071 124.282 86.071C124.692 87.2849 124.519 88.6093 124.992 89.8153V93.3153L125 93.3074Z" fill="#FF3E40"/>
<path d="M52.5239 139C51.5879 138.32 50.412 138.111 49.476 137.408C47.31 135.801 46.08 133.707 46.0104 130.995C45.9795 129.674 46.0259 128.345 46.0414 127.015C58.6583 127.015 71.2675 127 83.8845 127C83.9773 128.615 84.1166 130.245 83.8226 131.837C83.1496 135.484 80.9913 137.826 77.3633 138.768C77.224 138.807 77.1003 138.923 76.9688 139H52.5316H52.5239Z" fill="#FF3E40"/>
<path d="M111.363 132.038C111.363 134.273 112.177 135.245 114.388 135.618C116.3 135.937 118.174 136.302 119.494 137.928C119.763 138.255 120.047 138.544 119.993 139H100C100.353 137.579 101.443 136.857 102.68 136.363C103.578 136.005 104.553 135.815 105.513 135.633C107.832 135.2 108.63 134.303 108.63 132L111.363 132.03V132.038Z" fill="#CAE5EC"/>
<path d="M105 106C106.951 106.9 108.946 107.216 111 106.852L105 106Z" fill="#CAE5EC"/>
<path d="M83.9294 89C80.6503 89 77.3711 89 74.0919 89C72.4523 89 71.8258 88.4602 71.8104 86.7549C71.764 81.9361 67.9202 77.086 62.7307 75.9909C55.747 74.5124 49.4593 79.5737 48.8019 86.0274C48.7555 86.4811 48.655 86.9348 48.6008 87.3964C48.4307 88.781 48.0595 89.0078 46.0718 88.9843C46.0718 82.601 45.8708 76.2021 46.1414 69.8266C46.3425 65.0235 48.5854 60.9479 52.1971 57.8188C56.8375 53.8136 59.2582 48.8305 59.2814 42.6506C59.2814 41.5658 59.815 41.0209 60.8823 41.0157C63.9991 41.0157 67.1081 41.0078 70.2249 41C70.3487 41.0156 70.4724 41.0235 70.5961 41.0391C70.8127 43.0808 70.6039 45.146 71.0989 47.1721C72.0347 51.0287 73.8289 54.3924 76.8374 56.9661C81.8335 61.2451 84.1615 66.6349 83.9913 73.2451C83.8598 78.4941 83.9372 83.7431 83.9217 88.9922L83.9294 89Z" fill="#FF3E40"/>
<path d="M64.1343 42.9919C62.194 42.9353 60.2463 42.8786 58.306 42.9919C56.0746 42.7977 56 42.7087 56 40.2168C56 38.4369 56 36.665 56 34.8851C56 33.534 56.4702 33.0324 57.694 33.0324C62.5224 33.0243 67.3582 33.0081 72.1866 33C73.5896 33 74 33.4531 74 34.9984C74 36.9563 74 38.9143 74 40.8722C74 42.5631 73.6642 42.9352 72.1119 42.9676C72 42.9676 71.8881 42.9919 71.7836 43C69.2313 43 66.6791 43 64.1269 42.9919H64.1343Z" fill="#CAE5EC"/>
<path d="M124 86C116.451 86 108.895 85.9924 101.346 85.9847C100.895 85.9847 100.451 85.9466 100 85.9314C100.237 83.8268 101.101 81.8976 101.721 79.8998C102.256 78.1688 102.547 76.415 102.516 74.5926C102.478 72.3965 102.906 72 105.14 72C109.966 72 114.784 72 119.61 72C120.772 72 121.583 72.6329 121.484 73.7385C121.17 77.3834 122.539 80.6623 123.533 84.0251C123.725 84.6656 123.839 85.329 123.992 85.9847L124 86Z" fill="#C5D2FF"/>
<path d="M111 106.875C108.944 107.181 106.946 106.915 104.993 106.178C104.559 106.013 104.104 105.911 103.656 105.778V105.794C103.575 105.723 103.494 105.66 103.414 105.59C99.624 103.63 96.914 100.651 95.7169 96.2616C94.8577 93.1025 94.8136 89.9042 95.3571 86.6745C95.4526 86.0945 95.7022 85.9926 96.1502 86.0004C97.34 86.0239 98.5371 86.0475 99.7268 86.0631C99.7562 87.6466 99.4845 89.1987 99.4477 90.7822C99.2935 98.4957 103.318 104.351 110.207 106.421C110.486 106.507 110.905 106.382 111 106.868V106.875Z" fill="#FEB4A0"/>
</svg>
