<svg width="171" height="172" viewBox="0 0 171 172" fill="none" xmlns="http://www.w3.org/2000/svg">
<path d="M85.5 171.5C132.72 171.5 171 133.22 171 86C171 38.7797 132.72 0.5 85.5 0.5C38.2797 0.5 0 38.7797 0 86C0 133.22 38.2797 171.5 85.5 171.5Z" fill="#7E94FF"/>
<path d="M136.992 34.4171C136.73 34.4938 136.692 34.7468 136.599 34.9384C130.803 46.6514 125.007 58.3645 119.211 70.0852C119.141 70.2308 119.111 70.3918 119.057 70.5451C117.523 73.596 115.974 76.6469 114.455 79.7055C113.831 80.955 113.122 82.1662 112.675 83.5C110.447 83.5 108.227 83.5 106 83.4923C106.162 83.1397 106.324 82.7794 106.493 82.4268C109.222 76.8923 111.943 71.3577 114.671 65.8308C114.825 65.5395 114.987 65.2559 115.134 64.9646C120.267 54.593 125.4 44.2291 130.526 33.8575C131.158 32.5774 131.72 31.2512 133.054 30.5H134.826C135.805 30.9676 136.514 31.7035 137 32.6617V34.4325L136.992 34.4171Z" fill="#995B4E"/>
<path d="M107.007 58.5773C109.939 52.42 112.871 46.2626 115.81 40.1052C116.824 37.9817 117.846 35.8734 118.845 33.7423C119.43 32.4941 119.985 31.2307 121.229 30.5H122.932C123.317 30.8729 123.865 30.9795 124.227 31.3981C125.13 32.418 125.249 33.6129 124.546 35.0971C120.341 43.8955 116.136 52.694 111.931 61.5C110.346 60.4192 108.814 59.2547 107 58.5773H107.007Z" fill="#995B4E"/>
<path d="M106.175 83.5232C108.381 83.5232 110.58 83.5232 112.786 83.531C117.556 83.5232 122.335 83.5155 127.106 83.5077C127.594 83.5232 128.083 83.5 128.564 83.5619C129.907 83.7477 130.991 84.9628 130.999 86.3638C131.06 96.1237 128.762 105.156 122.816 113.012C118.999 118.058 114.152 121.812 108.404 124.343C107.725 124.645 107.473 124.986 107.526 125.721C107.595 126.704 107.564 127.702 107.534 128.693C107.488 130.21 106.282 131.495 104.793 131.495C98.8699 131.51 92.9464 131.487 87.0153 131.472C87.0153 115.497 87.0153 99.5215 87.0153 83.5542L87 83.5C93.3891 83.5 99.7706 83.5 106.16 83.5L106.175 83.5232Z" fill="#FF3E40"/>
<path d="M86.9924 83.5619C86.9924 99.5359 86.9924 115.51 86.9924 131.476C81.0993 131.484 75.2138 131.515 69.3207 131.492C67.7711 131.492 66.5497 130.222 66.4657 128.667C66.397 127.351 66.9466 125.757 66.2673 124.805C65.6031 123.868 64.023 123.621 62.8856 122.986C52.5879 117.236 46.4505 108.374 44.0002 96.8116C43.3284 93.6462 43.0231 90.4344 43.0002 87.1916C42.9849 84.6686 44.0307 83.5774 46.5192 83.5309C46.649 83.5309 46.7788 83.5077 46.9085 83.5C47.2979 83.5077 47.6872 83.5309 48.0765 83.5309C56.7558 83.5309 65.4428 83.5309 74.1222 83.5309C78.4122 83.5309 82.7023 83.5464 87 83.5542L86.9924 83.5619Z" fill="#FE7A53"/>
<path d="M87 83.4849C82.6127 83.4774 78.2254 83.4623 73.8303 83.4623C64.9543 83.4623 56.0705 83.4623 47.1944 83.4623C46.7963 83.4623 46.3981 83.4397 46 83.4321C46.2342 77.6185 48.9665 73.1547 54.314 70.5985C56.4452 69.5806 57.6396 68.4496 58.6778 66.376C60.9417 61.8292 64.9309 59.2353 70.2003 58.5114C71.9568 58.2702 73.6352 58.4436 75.3136 58.7904C76.0084 58.9337 76.4455 58.7829 76.9139 58.3531C79.7321 55.7517 83.1436 54.5754 87 54.5C87 58.0364 86.9844 61.5728 87 65.1092C87 65.6747 86.9532 66.0291 86.2428 66.2026C85.6026 66.3609 84.9391 66.6474 84.5487 67.3034C83.3934 69.2488 84.0491 71.0434 86.313 71.7974C86.8907 71.986 87 72.2272 86.9922 72.74C86.9688 76.3065 86.9766 79.8807 86.9766 83.4472L86.9922 83.5L87 83.4849ZM75.0247 71.8653C73.4244 71.8578 72.0192 73.1773 71.9958 74.7155C71.9724 76.2613 73.3307 77.6336 74.9155 77.6638C76.5626 77.694 77.9912 76.3518 77.9912 74.7683C77.9912 73.2226 76.6173 71.8804 75.0169 71.8729L75.0247 71.8653Z" fill="white"/>
<path d="M86.9063 83.6106C86.9063 79.9664 86.9063 76.3145 86.9217 72.6703C86.9217 72.1464 86.8139 71.9075 86.2514 71.7072C84.0172 70.9368 83.37 69.1031 84.5102 67.1154C84.8955 66.4451 85.5426 66.1523 86.1821 65.9905C86.8832 65.8133 86.9294 65.4512 86.9294 64.8734C86.914 61.26 86.9294 57.6466 86.9294 54.0332C90.6738 54.0717 93.979 55.2505 96.7449 57.8238C97.2996 58.34 97.8389 58.6173 98.6556 58.3785C101.083 57.662 103.502 57.9393 105.898 58.5942C106.144 58.6636 106.406 58.7098 106.661 58.7637C108.54 59.4494 110.143 60.6282 111.792 61.7223C111.992 62.5081 112.755 62.8317 113.186 63.4249C113.772 64.2339 114.35 65.0506 114.927 65.8595C112.2 71.4222 109.473 76.9848 106.753 82.5397C106.584 82.8941 106.422 83.2562 106.26 83.6106C99.8113 83.6106 93.3704 83.6106 86.9217 83.6106H86.9063Z" fill="#DDDDDD"/>
<path d="M127.37 83.6029C122.554 83.6106 117.731 83.6183 112.916 83.626C113.363 82.2854 114.079 81.0681 114.696 79.8123C116.214 76.7382 117.762 73.6718 119.295 70.6055C121.907 71.6379 123.695 73.6333 125.135 75.9061C126.599 78.2252 127.377 80.8216 127.37 83.6029Z" fill="#DDDDDD"/>
<path d="M75.103 71.7909C76.6747 71.7986 78.0384 73.1777 78.0384 74.7494C78.0384 76.3674 76.6285 77.7388 75.0029 77.708C73.4388 77.6771 72.0983 76.2826 72.1214 74.6955C72.1445 73.1238 73.5313 71.7755 75.1107 71.7832L75.103 71.7909Z" fill="#DDDDDD"/>
</svg>
