<svg width="55" height="52" viewBox="0 0 55 52" fill="none" xmlns="http://www.w3.org/2000/svg">
<path d="M25.5979 1.85411C26.1966 0.0114856 28.8034 0.0114813 29.4021 1.8541L34.3477 17.075C34.6154 17.899 35.3833 18.4569 36.2498 18.4569H52.254C54.1914 18.4569 54.997 20.9362 53.4295 22.075L40.4819 31.482C39.7809 31.9913 39.4876 32.894 39.7553 33.7181L44.7009 48.9389C45.2996 50.7816 43.1907 52.3138 41.6232 51.175L28.6756 41.768C27.9746 41.2587 27.0254 41.2587 26.3244 41.768L13.3768 51.175C11.8094 52.3138 9.70039 50.7816 10.2991 48.9389L15.2447 33.7181C15.5124 32.894 15.2191 31.9913 14.5181 31.482L1.57046 22.075C0.00303745 20.9362 0.808584 18.4569 2.74603 18.4569H18.7502C19.6167 18.4569 20.3846 17.899 20.6523 17.075L25.5979 1.85411Z" fill="#627DFF"/>
</svg>
