<svg width="27" height="26" viewBox="0 0 27 26" fill="none" xmlns="http://www.w3.org/2000/svg">
<mask id="mask0_1085_1351" style="mask-type:alpha" maskUnits="userSpaceOnUse" x="0" y="0" width="27" height="26">
<rect x="0.589844" width="26.4111" height="26" fill="white"/>
</mask>
<g mask="url(#mask0_1085_1351)">
<mask id="mask1_1085_1351" style="mask-type:alpha" maskUnits="userSpaceOnUse" x="0" y="-1" width="28" height="28">
<rect y="-1" width="28" height="28" fill="#494949"/>
</mask>
<g mask="url(#mask1_1085_1351)">
<path d="M14 23.5C13.6694 23.5 13.3924 23.3882 13.1688 23.1646C12.9451 22.941 12.8333 22.6639 12.8333 22.3333V14.1958C11.5889 14.1958 10.3931 13.9576 9.24583 13.4813C8.09861 13.0049 7.0875 12.3292 6.2125 11.4542C5.3375 10.5792 4.66667 9.56806 4.2 8.42083C3.73333 7.27361 3.5 6.07778 3.5 4.83333V3.66667C3.5 3.33611 3.61181 3.05903 3.83542 2.83542C4.05903 2.61181 4.33611 2.5 4.66667 2.5H5.83333C7.05833 2.5 8.24444 2.73819 9.39167 3.21458C10.5389 3.69097 11.55 4.36667 12.425 5.24167C13.0278 5.84444 13.5285 6.50556 13.9271 7.225C14.3257 7.94444 14.6319 8.7125 14.8458 9.52917C14.9431 9.39306 15.05 9.26181 15.1667 9.13542C15.2833 9.00903 15.4097 8.87778 15.5458 8.74167C16.4208 7.86667 17.4319 7.19097 18.5792 6.71458C19.7264 6.23819 20.9222 6 22.1667 6H23.3333C23.6639 6 23.941 6.11181 24.1646 6.33542C24.3882 6.55903 24.5 6.83611 24.5 7.16667V8.33333C24.5 9.57778 24.2618 10.7736 23.7854 11.9208C23.309 13.0681 22.6333 14.0792 21.7583 14.9542C20.8833 15.8292 19.8771 16.5 18.7396 16.9667C17.6021 17.4333 16.4111 17.6667 15.1667 17.6667V22.3333C15.1667 22.6639 15.0549 22.941 14.8313 23.1646C14.6076 23.3882 14.3306 23.5 14 23.5ZM12.8333 11.8333C12.8333 10.9 12.6535 10.0104 12.2937 9.16458C11.934 8.31875 11.4236 7.56528 10.7625 6.90417C10.1014 6.24306 9.34792 5.73264 8.50208 5.37292C7.65625 5.01319 6.76667 4.83333 5.83333 4.83333C5.83333 5.76667 6.00833 6.66111 6.35833 7.51667C6.70833 8.37222 7.21389 9.13056 7.875 9.79167C8.53611 10.4528 9.29444 10.9583 10.15 11.3083C11.0056 11.6583 11.9 11.8333 12.8333 11.8333ZM15.1667 15.3333C16.1 15.3333 16.9896 15.1583 17.8354 14.8083C18.6812 14.4583 19.4347 13.9528 20.0958 13.2917C20.7569 12.6306 21.2674 11.8722 21.6271 11.0167C21.9868 10.1611 22.1667 9.26667 22.1667 8.33333C21.2333 8.33333 20.3389 8.51319 19.4833 8.87292C18.6278 9.23264 17.8694 9.74306 17.2083 10.4042C16.5472 11.0653 16.0417 11.8188 15.6917 12.6646C15.3417 13.5104 15.1667 14.4 15.1667 15.3333Z" fill="#494949"/>
</g>
</g>
</svg>
