<svg width="27" height="26" viewBox="0 0 27 26" fill="none" xmlns="http://www.w3.org/2000/svg">
<mask id="mask0_862_1771" style="mask-type:alpha" maskUnits="userSpaceOnUse" x="0" y="0" width="27" height="26">
<rect x="0.589844" width="26.4111" height="26" fill="white"/>
</mask>
<g mask="url(#mask0_862_1771)">
<path d="M13.7947 13C12.5376 13 11.4615 12.5594 10.5663 11.6781C9.67109 10.7969 9.2235 9.7375 9.2235 8.5C9.2235 7.2625 9.67109 6.20312 10.5663 5.32188C11.4615 4.44063 12.5376 4 13.7947 4C15.0517 4 16.1279 4.44063 17.023 5.32188C17.9182 6.20312 18.3658 7.2625 18.3658 8.5C18.3658 9.7375 17.9182 10.7969 17.023 11.6781C16.1279 12.5594 15.0517 13 13.7947 13ZM4.65234 19.75V18.85C4.65234 18.2125 4.819 17.6266 5.15231 17.0922C5.48563 16.5578 5.92846 16.15 6.48081 15.8688C7.66169 15.2875 8.86162 14.8516 10.0806 14.5609C11.2996 14.2703 12.5376 14.125 13.7947 14.125C15.0517 14.125 16.2898 14.2703 17.5087 14.5609C18.7277 14.8516 19.9276 15.2875 21.1085 15.8688C21.6609 16.15 22.1037 16.5578 22.437 17.0922C22.7703 17.6266 22.937 18.2125 22.937 18.85V19.75C22.937 20.3687 22.7132 20.8984 22.2656 21.3391C21.818 21.7797 21.2799 22 20.6514 22H6.93792C6.30939 22 5.77133 21.7797 5.32373 21.3391C4.87614 20.8984 4.65234 20.3687 4.65234 19.75ZM6.93792 19.75H20.6514V18.85C20.6514 18.6438 20.599 18.4563 20.4943 18.2875C20.3895 18.1187 20.2514 17.9875 20.08 17.8938C19.0515 17.3875 18.0135 17.0078 16.9659 16.7547C15.9183 16.5016 14.8613 16.375 13.7947 16.375C12.7281 16.375 11.671 16.5016 10.6234 16.7547C9.57586 17.0078 8.53783 17.3875 7.50932 17.8938C7.3379 17.9875 7.19981 18.1187 7.09506 18.2875C6.9903 18.4563 6.93792 18.6438 6.93792 18.85V19.75ZM13.7947 10.75C14.4232 10.75 14.9613 10.5297 15.4089 10.0891C15.8564 9.64844 16.0802 9.11875 16.0802 8.5C16.0802 7.88125 15.8564 7.35156 15.4089 6.91094C14.9613 6.47031 14.4232 6.25 13.7947 6.25C13.1661 6.25 12.6281 6.47031 12.1805 6.91094C11.7329 7.35156 11.5091 7.88125 11.5091 8.5C11.5091 9.11875 11.7329 9.64844 12.1805 10.0891C12.6281 10.5297 13.1661 10.75 13.7947 10.75Z" fill="#494949"/>
</g>
</svg>
