<svg width="75" height="20" viewBox="0 0 75 20" fill="none" xmlns="http://www.w3.org/2000/svg">
<g clip-path="url(#clip0_862_1776)">
<path d="M63.1633 0.069558C66.8512 0.069558 70.5422 0.0843674 74.2301 0.0547487C74.8068 0.0510464 75.0064 0.213949 74.9969 0.921094C74.962 3.43868 74.962 5.95627 74.9969 8.47385C75.0064 9.1884 74.7973 9.3365 74.227 9.3365C69.6678 9.31058 65.1086 9.31798 60.5526 9.33279C60.2769 9.33279 59.8746 9.12546 59.7922 9.69932C59.7066 10.2843 59.8302 10.599 60.4385 10.5916C62.7577 10.5583 65.0769 10.5768 67.3961 10.5768C69.69 10.5768 71.9806 10.5953 74.2745 10.5657C74.8163 10.5583 75.0064 10.7286 74.9969 11.3876C74.9684 13.9052 74.9588 16.4228 75 18.9403C75.0127 19.703 74.7814 19.8474 74.1858 19.8437C67.808 19.8215 61.4334 19.8326 55.0556 19.8289C52.5336 19.8289 51.336 18.559 51.3011 15.6045C51.2409 10.6619 51.2948 5.71932 51.2726 0.776703C51.2726 0.0843673 51.5736 0.0658557 52.014 0.0658557C55.7304 0.0769627 59.4437 0.0732604 63.1601 0.0732604L63.1633 0.069558Z" fill="#B4B4B4"/>
<path d="M37.4951 17.4586C37.4951 17.4586 40.248 20.4079 50.4621 19.9521C51.0285 19.9633 50.9852 19.6113 50.9852 19.2296C50.9852 16.7398 50.9636 14.2537 50.9996 11.7638C51.0105 11.1302 50.776 10.9932 50.2239 10.9783C49.1127 10.945 48.0195 10.7412 46.9515 10.4263C44.7326 9.77046 43.3147 8.36252 42.9756 5.95789C42.7374 4.24612 42.889 2.52324 42.8781 0.804062C42.8745 0.222358 42.741 -0.00365471 42.1349 5.04136e-05C39.014 0.0259863 35.8932 0.0222812 32.7759 5.04136e-05C32.2094 -0.00365471 32.0651 0.196422 32.0795 0.748486C32.112 2.1305 32.112 3.51251 32.0759 4.89452C31.993 7.92531 30.64 9.67043 27.7969 10.4856C26.8697 10.7523 25.9208 10.9561 24.9647 10.9487C24.1384 10.945 23.9833 11.2673 24.0013 12.038C24.0519 14.3426 24.0591 16.6472 24.0013 18.9481C23.9797 19.7965 24.2539 20.0188 25.0224 19.9484C25.0224 19.9484 34.4139 20.4449 37.5023 17.4475L37.4951 17.4586Z" fill="#EA514B"/>
<path d="M11.8596 0.0516665C15.5221 0.0516665 19.1878 0.0775829 22.8504 0.0294526C23.5696 0.0220479 23.7185 0.277509 23.7153 1.06981C23.6868 7.02686 23.6836 12.9876 23.7185 18.9447C23.7248 19.8295 23.4777 20.0035 22.7839 19.9887C20.1478 19.9443 17.5118 19.9332 14.8758 19.9961C14.0774 20.0146 13.9316 19.7148 13.9411 18.8558C13.9855 15.5089 13.938 12.1583 13.976 8.81138C13.9855 8.01909 13.7637 7.84878 13.1237 7.85248C9.0366 7.8858 4.95266 7.84878 0.865552 7.8895C0.155853 7.89691 -0.0215722 7.66366 -0.00256237 6.86026C0.054467 4.90172 0.0449621 2.93578 0.00377423 0.969845C-0.00889897 0.255295 0.152684 0.0294526 0.789513 0.0368572C4.48058 0.0701782 8.17165 0.0553689 11.8596 0.0553689V0.0516665Z" fill="#6384F6"/>
</g>
<defs>
<clipPath id="clip0_862_1776">
<rect width="75" height="20" fill="white"/>
</clipPath>
</defs>
</svg>
