<svg width="27" height="27" viewBox="0 0 27 27" fill="none" xmlns="http://www.w3.org/2000/svg">
<mask id="mask0_1077_5494" style="mask-type:alpha" maskUnits="userSpaceOnUse" x="0" y="0" width="27" height="27">
<rect width="27" height="27" fill="#7A7A7A"/>
</mask>
<g mask="url(#mask0_1077_5494)">
<path d="M13.25 23.8844C12.9875 23.8844 12.7203 23.8375 12.4484 23.7438C12.1766 23.65 11.9375 23.5 11.7312 23.2938L9.79062 21.5219C7.80312 19.7031 6.00781 17.8984 4.40469 16.1078C2.80156 14.3172 2 12.3438 2 10.1875C2 8.425 2.59062 6.95313 3.77187 5.77188C4.95312 4.59063 6.425 4 8.1875 4C9.18125 4 10.1187 4.21094 11 4.63281C11.8812 5.05469 12.6312 5.63125 13.25 6.3625C13.8687 5.63125 14.6187 5.05469 15.5 4.63281C16.3812 4.21094 17.3187 4 18.3125 4C20.075 4 21.5469 4.59063 22.7281 5.77188C23.9094 6.95313 24.5 8.425 24.5 10.1875C24.5 12.3438 23.7031 14.3219 22.1094 16.1219C20.5156 17.9219 18.7062 19.7313 16.6812 21.55L14.7687 23.2938C14.5625 23.5 14.3234 23.65 14.0516 23.7438C13.7797 23.8375 13.5125 23.8844 13.25 23.8844ZM12.1812 8.6125C11.6375 7.84375 11.0562 7.25781 10.4375 6.85469C9.81875 6.45156 9.06875 6.25 8.1875 6.25C7.0625 6.25 6.125 6.625 5.375 7.375C4.625 8.125 4.25 9.0625 4.25 10.1875C4.25 11.1625 4.59687 12.1984 5.29062 13.2953C5.98437 14.3922 6.81406 15.4563 7.77969 16.4875C8.74531 17.5188 9.73906 18.4844 10.7609 19.3844C11.7828 20.2844 12.6125 21.025 13.25 21.6063C13.8875 21.025 14.7172 20.2844 15.7391 19.3844C16.7609 18.4844 17.7547 17.5188 18.7203 16.4875C19.6859 15.4563 20.5156 14.3922 21.2094 13.2953C21.9031 12.1984 22.25 11.1625 22.25 10.1875C22.25 9.0625 21.875 8.125 21.125 7.375C20.375 6.625 19.4375 6.25 18.3125 6.25C17.4312 6.25 16.6812 6.45156 16.0625 6.85469C15.4437 7.25781 14.8625 7.84375 14.3187 8.6125C14.1875 8.8 14.0281 8.94063 13.8406 9.03438C13.6531 9.12813 13.4562 9.175 13.25 9.175C13.0437 9.175 12.8469 9.12813 12.6594 9.03438C12.4719 8.94063 12.3125 8.8 12.1812 8.6125Z" fill="#494949"/>
</g>
</svg>
