<svg width="35" height="35" viewBox="0 0 35 35" fill="none" xmlns="http://www.w3.org/2000/svg">
<mask id="mask0_862_1496" style="mask-type:alpha" maskUnits="userSpaceOnUse" x="0" y="0" width="35" height="35">
<rect width="35" height="35" fill="#627DFF"/>
</mask>
<g mask="url(#mask0_862_1496)">
<path d="M13.8542 23.3333C11.2049 23.3333 8.96267 22.4158 7.1276 20.5807C5.29253 18.7457 4.375 16.5035 4.375 13.8542C4.375 11.2049 5.29253 8.96267 7.1276 7.1276C8.96267 5.29253 11.2049 4.375 13.8542 4.375C16.5035 4.375 18.7457 5.29253 20.5807 7.1276C22.4158 8.96267 23.3333 11.2049 23.3333 13.8542C23.3333 14.9236 23.1632 15.9323 22.8229 16.8802C22.4826 17.8281 22.0208 18.6667 21.4375 19.3958L29.6042 27.5625C29.8715 27.8299 30.0052 28.1701 30.0052 28.5833C30.0052 28.9965 29.8715 29.3368 29.6042 29.6042C29.3368 29.8715 28.9965 30.0052 28.5833 30.0052C28.1701 30.0052 27.8299 29.8715 27.5625 29.6042L19.3958 21.4375C18.6667 22.0208 17.8281 22.4826 16.8802 22.8229C15.9323 23.1632 14.9236 23.3333 13.8542 23.3333ZM13.8542 20.4167C15.6771 20.4167 17.2266 19.7786 18.5026 18.5026C19.7786 17.2266 20.4167 15.6771 20.4167 13.8542C20.4167 12.0312 19.7786 10.4818 18.5026 9.20573C17.2266 7.92969 15.6771 7.29167 13.8542 7.29167C12.0312 7.29167 10.4818 7.92969 9.20573 9.20573C7.92969 10.4818 7.29167 12.0312 7.29167 13.8542C7.29167 15.6771 7.92969 17.2266 9.20573 18.5026C10.4818 19.7786 12.0312 20.4167 13.8542 20.4167Z" fill="#627DFF"/>
</g>
</svg>
