<svg width="73" height="84" viewBox="0 0 73 84" fill="none" xmlns="http://www.w3.org/2000/svg">
<path d="M39.3603 28.8881C41.8847 26.6369 45.8889 24.3421 51.5906 24.7488C52.0258 24.7778 52.3885 24.7488 52.7077 24.7052C53.1575 24.7343 53.5927 24.7488 54.057 24.7488C64.0095 24.7488 72.0759 19.2007 72.0759 12.3744C72.0759 5.54815 64.0095 0 54.057 0C44.1044 0 36.038 5.54815 36.038 12.3744C36.038 5.53362 27.9715 0 18.019 0C8.06647 0 0 5.54815 0 12.3744C0 19.2007 8.06647 24.7488 18.019 24.7488C18.4687 24.7488 18.9185 24.7198 19.3682 24.7052C19.6874 24.7633 20.0501 24.7778 20.4853 24.7488C26.1725 24.3421 30.1912 26.6369 32.7156 28.8881C16.0169 30.3696 2.97415 42.8456 2.97415 58.0231C2.97415 74.2028 17.7868 83.4982 36.0525 83.4982C54.3181 83.4982 69.1308 74.2028 69.1308 58.0231C69.1308 42.8456 56.0881 30.355 39.3893 28.8881H39.3603Z" fill="#939393"/>
<path d="M50.3088 48.6573C50.3088 46.9006 48.8895 45.4766 47.1388 45.4766C45.388 45.4766 43.9688 46.9006 43.9688 48.6573V56.1226C43.9688 57.8793 45.388 59.3034 47.1388 59.3034C48.8895 59.3034 50.3088 57.8793 50.3088 56.1226V48.6573Z" fill="#D9D9D9"/>
<path d="M47.15 48.7731C47.727 48.7731 48.1946 48.3049 48.1946 47.7274C48.1946 47.1498 47.727 46.6816 47.15 46.6816C46.5731 46.6816 46.1055 47.1498 46.1055 47.7274C46.1055 48.3049 46.5731 48.7731 47.15 48.7731Z" fill="#D9D9D9"/>
<path d="M28.0705 48.6573C28.0705 46.9006 26.6512 45.4766 24.9005 45.4766C23.1497 45.4766 21.7305 46.9006 21.7305 48.6573V56.1226C21.7305 57.8793 23.1497 59.3034 24.9005 59.3034C26.6512 59.3034 28.0705 57.8793 28.0705 56.1226V48.6573Z" fill="#D9D9D9"/>
<path d="M24.9118 48.7731C25.4887 48.7731 25.9563 48.3049 25.9563 47.7274C25.9563 47.1498 25.4887 46.6816 24.9118 46.6816C24.3349 46.6816 23.8672 47.1498 23.8672 47.7274C23.8672 48.3049 24.3349 48.7731 24.9118 48.7731Z" fill="#D9D9D9"/>
<path d="M39.7456 62.3574C39.7456 64.4053 38.0627 66.061 35.9881 66.061C33.9134 66.061 32.2305 64.4053 32.2305 62.3574H39.7311H39.7456Z" fill="#D9D9D9"/>
</svg>
