<svg width="75" height="75" viewBox="0 0 75 75" fill="none" xmlns="http://www.w3.org/2000/svg">
<circle cx="37.5" cy="37.5" r="37.5" fill="#627DFF"/>
<mask id="mask0_976_9" style="mask-type:alpha" maskUnits="userSpaceOnUse" x="18" y="17" width="40" height="43">
<rect x="18" y="17" width="39.9486" height="42.9598" fill="white"/>
</mask>
<g mask="url(#mask0_976_9)">
<path d="M24.946 54.5911C24.3634 54.7403 23.8571 54.5837 23.4271 54.1212C22.9971 53.6588 22.8515 53.1144 22.9902 52.4879L24.6547 43.9407L32.8941 52.8011L24.946 54.5911ZM32.8941 52.8011L24.6547 43.9407L43.7135 23.4453C44.3516 22.7591 45.1423 22.416 46.0855 22.416C47.0287 22.416 47.8194 22.7591 48.4574 23.4453L51.9529 27.2042C52.591 27.8904 52.91 28.7407 52.91 29.755C52.91 30.7693 52.591 31.6196 51.9529 32.3057L32.8941 52.8011ZM46.0855 25.9512L28.8577 44.4777L32.3948 48.2814L49.6226 29.755L46.0855 25.9512Z" fill="white"/>
</g>
</svg>
