<svg width="30" height="30" viewBox="0 0 30 30" fill="none" xmlns="http://www.w3.org/2000/svg">
<mask id="mask0_878_5" style="mask-type:alpha" maskUnits="userSpaceOnUse" x="0" y="0" width="30" height="30">
<rect width="30" height="30" fill="#494949"/>
</mask>
<g mask="url(#mask0_878_5)">
<path d="M15 25.4063C14.7083 25.4063 14.4115 25.3542 14.1094 25.25C13.8073 25.1458 13.5417 24.9792 13.3125 24.75L11.1562 22.7813C8.94792 20.7604 6.95312 18.7552 5.17188 16.7656C3.39062 14.776 2.5 12.5833 2.5 10.1875C2.5 8.22917 3.15625 6.59375 4.46875 5.28125C5.78125 3.96875 7.41667 3.3125 9.375 3.3125C10.4792 3.3125 11.5208 3.54688 12.5 4.01563C13.4792 4.48438 14.3125 5.125 15 5.9375C15.6875 5.125 16.5208 4.48438 17.5 4.01563C18.4792 3.54688 19.5208 3.3125 20.625 3.3125C22.5833 3.3125 24.2188 3.96875 25.5313 5.28125C26.8438 6.59375 27.5 8.22917 27.5 10.1875C27.5 12.5833 26.6146 14.7813 24.8438 16.7813C23.0729 18.7813 21.0625 20.7917 18.8125 22.8125L16.6875 24.75C16.4583 24.9792 16.1927 25.1458 15.8906 25.25C15.5885 25.3542 15.2917 25.4063 15 25.4063ZM13.8125 8.4375C13.2083 7.58333 12.5625 6.93229 11.875 6.48438C11.1875 6.03646 10.3542 5.8125 9.375 5.8125C8.125 5.8125 7.08333 6.22917 6.25 7.0625C5.41667 7.89583 5 8.9375 5 10.1875C5 11.2708 5.38542 12.4219 6.15625 13.6406C6.92708 14.8594 7.84896 16.0417 8.92188 17.1875C9.99479 18.3333 11.099 19.4063 12.2344 20.4063C13.3698 21.4063 14.2917 22.2292 15 22.875C15.7083 22.2292 16.6302 21.4063 17.7656 20.4063C18.901 19.4063 20.0052 18.3333 21.0781 17.1875C22.151 16.0417 23.0729 14.8594 23.8438 13.6406C24.6146 12.4219 25 11.2708 25 10.1875C25 8.9375 24.5833 7.89583 23.75 7.0625C22.9167 6.22917 21.875 5.8125 20.625 5.8125C19.6458 5.8125 18.8125 6.03646 18.125 6.48438C17.4375 6.93229 16.7917 7.58333 16.1875 8.4375C16.0417 8.64583 15.8646 8.80208 15.6563 8.90625C15.4479 9.01042 15.2292 9.0625 15 9.0625C14.7708 9.0625 14.5521 9.01042 14.3438 8.90625C14.1354 8.80208 13.9583 8.64583 13.8125 8.4375Z" fill="#494949"/>
</g>
</svg>
